<svg width="23" height="24" viewBox="0 0 23 24" fill="none" xmlns="http://www.w3.org/2000/svg">
<path opacity="0.1" fill-rule="evenodd" clip-rule="evenodd" d="M0.026001 12.0485C0.026001 5.8976 5.01226 0.911346 11.1631 0.911346C17.314 0.911346 22.3002 5.8976 22.3002 12.0485C22.3002 18.1993 17.314 23.1856 11.1631 23.1856C5.01226 23.1856 0.026001 18.1993 0.026001 12.0485Z" fill="white"/>
<path fill-rule="evenodd" clip-rule="evenodd" d="M17.1029 12.0402C17.1029 12.4419 17.062 12.8431 16.9816 13.2341C16.9033 13.6158 16.7873 13.9906 16.6353 14.3488C16.4868 14.7008 16.3026 15.0399 16.0874 15.3562C15.8754 15.6704 15.6312 15.9653 15.3629 16.234C15.094 16.5016 14.7982 16.7452 14.4841 16.9581C14.1668 17.1718 13.8271 17.3557 13.475 17.5049C13.1162 17.6561 12.7406 17.7719 12.3592 17.8501C11.9677 17.9307 11.5651 17.9718 11.1628 17.9718C10.7602 17.9718 10.3576 17.9307 9.96666 17.8501C9.58468 17.7719 9.20907 17.6561 8.85057 17.5049C8.49846 17.3557 8.15852 17.1718 7.84121 16.9581C7.5271 16.7452 7.23126 16.5016 6.96296 16.234C6.69439 15.9653 6.45016 15.6704 6.23785 15.3562C6.0238 15.0399 5.83932 14.7007 5.69025 14.3488C5.53824 13.9906 5.42195 13.6158 5.34335 13.2341C5.26388 12.8431 5.22327 12.4419 5.22327 12.0402C5.22327 11.6382 5.26386 11.2362 5.34337 10.8461C5.42198 10.4643 5.53827 10.089 5.69027 9.73132C5.83934 9.37914 6.02382 9.03971 6.23787 8.72342C6.45018 8.4089 6.69441 8.11462 6.96299 7.84556C7.23128 7.57793 7.52712 7.33496 7.84124 7.12237C8.15854 6.90775 8.49849 6.72386 8.85059 6.5744C9.20909 6.42289 9.58468 6.30677 9.96668 6.22916C10.3577 6.14923 10.7602 6.10867 11.1628 6.10867C11.5651 6.10867 11.9677 6.14923 12.3592 6.22916C12.7406 6.30679 13.1162 6.42292 13.475 6.5744C13.8271 6.72383 14.1668 6.90775 14.4841 7.12237C14.7982 7.33496 15.0941 7.57793 15.3629 7.84556C15.6312 8.11462 15.8754 8.4089 16.0875 8.72342C16.3026 9.03971 16.4868 9.37917 16.6353 9.73132C16.7873 10.089 16.9033 10.4643 16.9816 10.8461C17.062 11.2362 17.1029 11.6382 17.1029 12.0402ZM8.99846 7.45862C7.5839 8.12564 6.52814 9.42721 6.19894 10.9958C6.33266 10.997 8.44651 11.0236 10.882 10.3775C10.004 8.81985 9.06604 7.54872 8.99846 7.45862ZM11.3023 11.1575C8.69043 11.9383 6.18415 11.8821 6.09424 11.8786C6.09278 11.9331 6.09018 11.9858 6.09018 12.0402C6.09018 13.3415 6.5818 14.5278 7.38986 15.4248C7.38812 15.4222 8.77629 12.963 11.5137 12.079C11.5798 12.057 11.6471 12.0373 11.7138 12.0182C11.5865 11.7303 11.4476 11.4419 11.3023 11.1575ZM14.5128 8.23859C13.6197 7.45224 12.4471 6.97525 11.1628 6.97525C10.7506 6.97525 10.3506 7.02507 9.9675 7.11717C10.0435 7.21913 10.9963 8.48131 11.8638 10.0719C13.7778 9.35539 14.5003 8.25712 14.5128 8.23859ZM12.0596 12.8576C12.0483 12.8613 12.037 12.8645 12.026 12.8686C9.03306 13.9104 8.05568 16.0101 8.04511 16.033C8.90627 16.7017 9.98639 17.1052 11.1628 17.1052C11.8653 17.1052 12.5344 16.9624 13.1432 16.7038C13.0681 16.2612 12.7734 14.71 12.0596 12.8576ZM13.9974 16.241C15.1364 15.4735 15.9453 14.2547 16.1709 12.843C16.0665 12.8094 14.6473 12.3608 13.01 12.6229C13.6754 14.4488 13.9457 15.9357 13.9974 16.241ZM12.2542 10.8267C12.372 11.0682 12.486 11.3141 12.5913 11.5612C12.6287 11.6498 12.6652 11.7367 12.7009 11.8236C14.4435 11.6046 16.1603 11.973 16.2336 11.9881C16.222 10.7873 15.7919 9.68525 15.0802 8.82248C15.0706 8.83606 14.257 10.0099 12.2542 10.8267Z" fill="white"/>
</svg>
