<svg width="35" height="35" viewBox="0 0 35 35" fill="none" xmlns="http://www.w3.org/2000/svg">
<path d="M4.72089 12.1643V12.5124H5.06892H30.1274H30.4755V12.1643V10.5982C30.4755 9.8136 30.1638 9.06115 29.609 8.50636C29.0542 7.95157 28.3018 7.63989 27.5172 7.63989H7.67918C6.89459 7.63989 6.14214 7.95157 5.58735 8.50636C5.03256 9.06115 4.72089 9.8136 4.72089 10.5982V12.1643ZM30.4755 14.2526V13.9045H30.1274H5.06892H4.72089V14.2526V24.1715C4.72089 24.9561 5.03256 25.7086 5.58735 26.2634C6.14214 26.8182 6.89459 27.1298 7.67918 27.1298H27.5172C28.3018 27.1298 29.0542 26.8182 29.609 26.2634C30.1638 25.7086 30.4755 24.9561 30.4755 24.1715V14.2526ZM3.32875 10.5982C3.32875 9.44438 3.7871 8.33783 4.60296 7.52197C5.41882 6.7061 6.52537 6.24775 7.67918 6.24775H27.5172C28.671 6.24775 29.7775 6.7061 30.5934 7.52197C31.4092 8.33783 31.8676 9.44438 31.8676 10.5982V24.1715C31.8676 25.3253 31.4092 26.4319 30.5934 27.2478C29.7775 28.0636 28.671 28.522 27.5172 28.522H7.67918C6.52537 28.522 5.41882 28.0636 4.60296 27.2478C3.7871 26.4319 3.32875 25.3253 3.32875 24.1715V10.5982ZM22.8187 20.8652H25.951C26.1356 20.8652 26.3127 20.9385 26.4432 21.0691C26.5737 21.1996 26.6471 21.3767 26.6471 21.5613C26.6471 21.7459 26.5737 21.9229 26.4432 22.0535C26.3127 22.184 26.1356 22.2574 25.951 22.2574H22.8187C22.6341 22.2574 22.457 22.184 22.3265 22.0535C22.196 21.9229 22.1226 21.7459 22.1226 21.5613C22.1226 21.3767 22.196 21.1996 22.3265 21.0691C22.457 20.9385 22.6341 20.8652 22.8187 20.8652Z" fill="#634686" stroke="#634686" stroke-width="0.696069"/>
</svg>
