<svg width="34" height="35" viewBox="0 0 34 35" fill="none" xmlns="http://www.w3.org/2000/svg">
<mask id="path-1-inside-1_211_2338" fill="white">
<path d="M20.11 17.2948C19.9424 17.2948 19.7867 17.2487 19.6485 17.1746V17.1765C19.6485 17.4402 19.546 17.6879 19.36 17.8734C19.1741 18.0593 18.9266 18.1618 18.6632 18.1618C18.4932 18.1618 18.3356 18.1146 18.1958 18.0385C18.1817 18.2797 18.0853 18.5052 17.9133 18.6774C17.7273 18.8634 17.4798 18.9659 17.2163 18.9659C16.6926 18.9659 16.2674 18.5543 16.2368 18.0383C16.0747 18.1259 15.8915 18.1718 15.7026 18.1597C15.1875 18.1259 14.7841 17.6808 14.7841 17.1462V12.7146L14.2795 13.5888C14.0873 13.9232 13.7275 14.1308 13.3401 14.1308C13.1514 14.1308 12.9649 14.0813 12.7998 13.9866C12.5941 13.8674 12.447 13.676 12.3858 13.4471C12.3244 13.218 12.3562 12.9784 12.4751 12.7731C12.4752 12.7731 14.1261 9.91417 14.2268 9.73856C14.2388 9.71215 14.2729 9.63557 14.302 9.5703C14.3297 9.50798 14.3535 9.44403 14.3762 9.37974C14.8741 7.97418 16.1069 7.10108 17.5936 7.10108C19.5243 7.10108 21.095 8.80429 21.095 10.8979L21.0952 16.3093C21.0952 16.5727 20.9928 16.8202 20.807 17.0063C20.6211 17.1923 20.3736 17.2948 20.1099 17.2948L20.11 17.2948ZM17.5936 7.62462C16.3161 7.62462 15.2979 8.34621 14.8697 9.55483C14.8423 9.63158 14.8138 9.70833 14.7805 9.78311C14.6839 9.99975 14.6839 9.99974 14.6567 10.0309L14.6531 10.0278C14.5183 10.2821 14.1178 10.9757 12.9284 13.0351C12.8795 13.1195 12.8665 13.2176 12.8915 13.3114C12.9167 13.4052 12.9772 13.4843 13.061 13.5326C13.3211 13.682 13.6773 13.5856 13.8256 13.3273L14.8192 11.607C14.8786 11.5045 14.9986 11.4542 15.1137 11.4853C15.2282 11.516 15.3077 11.6198 15.3077 11.7382V17.1463C15.3077 17.4015 15.5003 17.6217 15.7369 17.6373C15.8734 17.6445 16.0006 17.5988 16.0962 17.5033C16.1832 17.4164 16.231 17.3007 16.231 17.1768V13.6398C16.231 13.4952 16.3483 13.3779 16.4929 13.3779C16.6376 13.3779 16.7548 13.495 16.7548 13.6398L16.7547 17.9808C16.7547 18.2353 16.9618 18.4424 17.2163 18.4424C17.34 18.4424 17.4561 18.3945 17.5431 18.3076C17.6301 18.2205 17.6779 18.1044 17.6779 17.9808V13.6398C17.6779 13.4952 17.795 13.3779 17.9398 13.3779C18.0845 13.3779 18.2017 13.495 18.2017 13.6398L18.2016 17.1362V17.1768C18.2016 17.4312 18.4087 17.6383 18.6634 17.6383C18.7869 17.6383 18.9026 17.5902 18.9902 17.503C19.0771 17.4162 19.125 17.3005 19.125 17.1766V13.6397C19.125 13.495 19.2421 13.3778 19.3869 13.3778C19.5316 13.3778 19.6488 13.4949 19.6488 13.6397L19.6485 16.3095C19.6485 16.5641 19.8556 16.7713 20.1099 16.7713C20.2338 16.7713 20.3495 16.7232 20.4365 16.6365C20.5237 16.5492 20.5714 16.4331 20.5714 16.3095L20.5716 10.898C20.5716 9.09325 19.2357 7.62467 17.5936 7.62467L17.5936 7.62462Z"/>
</mask>
<path d="M20.11 17.2948C19.9424 17.2948 19.7867 17.2487 19.6485 17.1746V17.1765C19.6485 17.4402 19.546 17.6879 19.36 17.8734C19.1741 18.0593 18.9266 18.1618 18.6632 18.1618C18.4932 18.1618 18.3356 18.1146 18.1958 18.0385C18.1817 18.2797 18.0853 18.5052 17.9133 18.6774C17.7273 18.8634 17.4798 18.9659 17.2163 18.9659C16.6926 18.9659 16.2674 18.5543 16.2368 18.0383C16.0747 18.1259 15.8915 18.1718 15.7026 18.1597C15.1875 18.1259 14.7841 17.6808 14.7841 17.1462V12.7146L14.2795 13.5888C14.0873 13.9232 13.7275 14.1308 13.3401 14.1308C13.1514 14.1308 12.9649 14.0813 12.7998 13.9866C12.5941 13.8674 12.447 13.676 12.3858 13.4471C12.3244 13.218 12.3562 12.9784 12.4751 12.7731C12.4752 12.7731 14.1261 9.91417 14.2268 9.73856C14.2388 9.71215 14.2729 9.63557 14.302 9.5703C14.3297 9.50798 14.3535 9.44403 14.3762 9.37974C14.8741 7.97418 16.1069 7.10108 17.5936 7.10108C19.5243 7.10108 21.095 8.80429 21.095 10.8979L21.0952 16.3093C21.0952 16.5727 20.9928 16.8202 20.807 17.0063C20.6211 17.1923 20.3736 17.2948 20.1099 17.2948L20.11 17.2948ZM17.5936 7.62462C16.3161 7.62462 15.2979 8.34621 14.8697 9.55483C14.8423 9.63158 14.8138 9.70833 14.7805 9.78311C14.6839 9.99975 14.6839 9.99974 14.6567 10.0309L14.6531 10.0278C14.5183 10.2821 14.1178 10.9757 12.9284 13.0351C12.8795 13.1195 12.8665 13.2176 12.8915 13.3114C12.9167 13.4052 12.9772 13.4843 13.061 13.5326C13.3211 13.682 13.6773 13.5856 13.8256 13.3273L14.8192 11.607C14.8786 11.5045 14.9986 11.4542 15.1137 11.4853C15.2282 11.516 15.3077 11.6198 15.3077 11.7382V17.1463C15.3077 17.4015 15.5003 17.6217 15.7369 17.6373C15.8734 17.6445 16.0006 17.5988 16.0962 17.5033C16.1832 17.4164 16.231 17.3007 16.231 17.1768V13.6398C16.231 13.4952 16.3483 13.3779 16.4929 13.3779C16.6376 13.3779 16.7548 13.495 16.7548 13.6398L16.7547 17.9808C16.7547 18.2353 16.9618 18.4424 17.2163 18.4424C17.34 18.4424 17.4561 18.3945 17.5431 18.3076C17.6301 18.2205 17.6779 18.1044 17.6779 17.9808V13.6398C17.6779 13.4952 17.795 13.3779 17.9398 13.3779C18.0845 13.3779 18.2017 13.495 18.2017 13.6398L18.2016 17.1362V17.1768C18.2016 17.4312 18.4087 17.6383 18.6634 17.6383C18.7869 17.6383 18.9026 17.5902 18.9902 17.503C19.0771 17.4162 19.125 17.3005 19.125 17.1766V13.6397C19.125 13.495 19.2421 13.3778 19.3869 13.3778C19.5316 13.3778 19.6488 13.4949 19.6488 13.6397L19.6485 16.3095C19.6485 16.5641 19.8556 16.7713 20.1099 16.7713C20.2338 16.7713 20.3495 16.7232 20.4365 16.6365C20.5237 16.5492 20.5714 16.4331 20.5714 16.3095L20.5716 10.898C20.5716 9.09325 19.2357 7.62467 17.5936 7.62467L17.5936 7.62462Z" fill="#634686"/>
<path d="M20.11 17.2948V16.3667H23.389L20.5964 18.0852L20.11 17.2948ZM19.6485 17.1746H18.7204V15.6238L20.0871 16.3566L19.6485 17.1746ZM19.36 17.8734L18.7038 17.2171L18.7046 17.2162L19.36 17.8734ZM18.1958 18.0385L17.2693 17.9843L17.3547 16.5237L18.6397 17.2234L18.1958 18.0385ZM17.9133 18.6774L18.5699 19.3333L18.5695 19.3337L17.9133 18.6774ZM16.2368 18.0383L15.7955 17.2219L17.0768 16.5293L17.1632 17.9833L16.2368 18.0383ZM15.7026 18.1597L15.6431 19.0859L15.6419 19.0858L15.7026 18.1597ZM14.7841 12.7146L13.9803 12.2506L15.7122 9.25019V12.7146H14.7841ZM14.2795 13.5888L13.4748 13.1263L13.4757 13.1248L14.2795 13.5888ZM12.7998 13.9866L12.3383 14.7919L12.3343 14.7896L12.7998 13.9866ZM12.3858 13.4471L13.2822 13.2065L13.2825 13.2075L12.3858 13.4471ZM12.4751 12.7731L11.6719 12.308L11.94 11.845H12.4751V12.7731ZM14.2268 9.73856L15.0721 10.1218L15.0539 10.162L15.0319 10.2003L14.2268 9.73856ZM14.302 9.5703L13.4539 9.19317L13.4539 9.19316L14.302 9.5703ZM14.3762 9.37974L15.2511 9.68962L15.251 9.68987L14.3762 9.37974ZM21.095 10.8979L20.1669 10.8979V10.8979H21.095ZM21.0952 16.3093L22.0233 16.3093V16.3093H21.0952ZM20.807 17.0063L21.4639 17.662L21.4633 17.6626L20.807 17.0063ZM20.1099 17.2948V18.2229H16.8309L19.6235 16.5044L20.1099 17.2948ZM17.5936 7.62462V6.69653H18.824L18.486 7.87959L17.5936 7.62462ZM14.8697 9.55483L15.7445 9.86475L15.7438 9.86675L14.8697 9.55483ZM14.7805 9.78311L15.6284 10.1606L15.6282 10.1611L14.7805 9.78311ZM14.6567 10.0309L15.3556 10.6416L14.7484 11.3364L14.0501 10.7333L14.6567 10.0309ZM14.6531 10.0278L13.833 9.59318L14.3784 8.56422L15.2597 9.32538L14.6531 10.0278ZM12.9284 13.0351L13.7321 13.4993L13.7317 13.4999L12.9284 13.0351ZM12.8915 13.3114L11.9953 13.5527L11.9945 13.5498L12.8915 13.3114ZM13.061 13.5326L12.5988 14.3374L12.597 14.3364L13.061 13.5326ZM13.8256 13.3273L13.0206 12.8653L13.0219 12.8631L13.8256 13.3273ZM14.8192 11.607L14.0155 11.1428L14.0161 11.1418L14.8192 11.607ZM15.1137 11.4853L14.8736 12.3818L14.8713 12.3812L15.1137 11.4853ZM15.7369 17.6373L15.6879 18.5642L15.676 18.5634L15.7369 17.6373ZM16.0962 17.5033L16.7525 18.1596L16.7519 18.1602L16.0962 17.5033ZM16.7548 13.6398H17.6829V13.6399L16.7548 13.6398ZM16.7547 17.9808H15.8266V17.9808L16.7547 17.9808ZM17.5431 18.3076L18.2 18.9633L18.1988 18.9645L17.5431 18.3076ZM18.2017 13.6398H19.1298V13.6399L18.2017 13.6398ZM18.2016 17.1362H17.2735V17.1361L18.2016 17.1362ZM18.9902 17.503L19.6459 18.1599L19.6452 18.1605L18.9902 17.503ZM19.6488 13.6397H20.5769V13.6398L19.6488 13.6397ZM19.6485 16.3095H18.7204V16.3094L19.6485 16.3095ZM20.4365 16.6365L21.0927 17.2927L21.0921 17.2933L20.4365 16.6365ZM20.5714 16.3095H19.6433V16.3094L20.5714 16.3095ZM20.5716 10.898H21.4997V10.898L20.5716 10.898ZM17.5936 7.62467V8.55277H16.3632L16.7012 7.36971L17.5936 7.62467ZM20.11 18.2229C19.7682 18.2229 19.4631 18.1283 19.2099 17.9925L20.0871 16.3566C20.0991 16.3631 20.1067 16.3655 20.1097 16.3663C20.1123 16.367 20.1119 16.3667 20.11 16.3667V18.2229ZM20.5766 17.1746V17.1765H18.7204V17.1746H20.5766ZM20.5766 17.1765C20.5766 17.6856 20.3768 18.17 20.0154 18.5305L18.7046 17.2162C18.7113 17.2096 18.7146 17.2039 18.7165 17.1993C18.7184 17.1947 18.7204 17.1875 18.7204 17.1765H20.5766ZM20.0163 18.5296C19.6561 18.8898 19.1725 19.0899 18.6632 19.0899V17.2337C18.6739 17.2337 18.6809 17.2318 18.6856 17.2298C18.6904 17.2279 18.6965 17.2243 18.7038 17.2171L20.0163 18.5296ZM18.6632 19.0899C18.317 19.0899 18.0081 18.993 17.752 18.8536L18.6397 17.2234C18.6518 17.23 18.6594 17.2325 18.6625 17.2333C18.6651 17.234 18.6649 17.2337 18.6632 17.2337V19.0899ZM19.1223 18.0927C19.0956 18.5495 18.9103 18.9925 18.5699 19.3333L17.2567 18.0215C17.2601 18.0181 17.2621 18.015 17.2638 18.0112C17.2656 18.007 17.2685 17.9985 17.2693 17.9843L19.1223 18.0927ZM18.5695 19.3337C18.2093 19.6939 17.7257 19.894 17.2163 19.894V18.0378C17.2271 18.0378 17.2342 18.0358 17.2389 18.0339C17.2436 18.0319 17.2498 18.0284 17.257 18.0212L18.5695 19.3337ZM17.2163 19.894C16.1917 19.894 15.3695 19.0898 15.3103 18.0934L17.1632 17.9833C17.1642 17.9991 17.1706 18.0129 17.182 18.0238C17.1876 18.0291 17.1933 18.0326 17.1982 18.0346C17.2025 18.0363 17.208 18.0378 17.2163 18.0378V19.894ZM16.678 18.8548C16.3783 19.0168 16.0228 19.1103 15.6431 19.0859L15.7621 17.2335C15.7621 17.2335 15.7641 17.2337 15.769 17.2326C15.7742 17.2313 15.7833 17.2284 15.7955 17.2219L16.678 18.8548ZM15.6419 19.0858C14.6114 19.0182 13.856 18.1419 13.856 17.1462H15.7122C15.7122 17.1776 15.7236 17.2017 15.7379 17.2175C15.7518 17.2329 15.7612 17.2334 15.7634 17.2336L15.6419 19.0858ZM13.856 17.1462V12.7146H15.7122V17.1462H13.856ZM15.5879 13.1785L15.0833 14.0528L13.4757 13.1248L13.9803 12.2506L15.5879 13.1785ZM15.0841 14.0513C14.7255 14.6752 14.0579 15.0589 13.3401 15.0589V13.2027C13.397 13.2027 13.4491 13.1711 13.4748 13.1263L15.0841 14.0513ZM13.3401 15.0589C12.9891 15.0589 12.6437 14.9668 12.3383 14.7919L13.2612 13.1814C13.2861 13.1957 13.3136 13.2027 13.3401 13.2027V15.0589ZM12.3343 14.7896C11.9176 14.548 11.6143 14.1549 11.4892 13.6867L13.2825 13.2075C13.2816 13.2044 13.2793 13.1987 13.2749 13.1929C13.2704 13.1871 13.2663 13.1843 13.2653 13.1837L12.3343 14.7896ZM11.4895 13.6877C11.3639 13.2198 11.4296 12.7264 11.6719 12.308L13.2782 13.2381C13.2795 13.2358 13.2819 13.2305 13.2829 13.223C13.2839 13.2155 13.283 13.2095 13.2822 13.2065L11.4895 13.6877ZM12.4751 11.845C12.0198 11.9643 11.679 12.2959 11.6765 12.3002C11.6756 12.3016 11.6744 12.3037 11.674 12.3044C11.6737 12.3048 11.6733 12.3055 11.6732 12.3057C11.6731 12.3059 11.673 12.3062 11.6729 12.3062C11.6728 12.3065 11.6728 12.3064 11.6732 12.3058C11.6738 12.3047 11.6749 12.3029 11.6764 12.3002C11.6795 12.2949 11.684 12.287 11.6901 12.2765C11.7022 12.2556 11.7199 12.2249 11.7426 12.1857C11.7879 12.1072 11.8528 11.9948 11.931 11.8595C12.0873 11.5887 12.2968 11.2259 12.5095 10.8576C12.9355 10.1197 13.3723 9.36309 13.4218 9.27683L15.0319 10.2003C14.9807 10.2896 14.5416 11.0502 14.117 11.7857C13.9043 12.1541 13.6948 12.517 13.5384 12.7878C13.4602 12.9232 13.3953 13.0355 13.3499 13.1141C13.3272 13.1534 13.3094 13.1842 13.2972 13.2053C13.2911 13.2158 13.2864 13.2239 13.2832 13.2295C13.2816 13.2323 13.2803 13.2345 13.2793 13.2362C13.2789 13.237 13.2783 13.2379 13.2778 13.2388C13.2776 13.2392 13.277 13.2402 13.2763 13.2414C13.2758 13.2422 13.2745 13.2444 13.2737 13.2459C13.2711 13.2502 12.9303 13.5818 12.4751 13.7012V11.845ZM13.3816 9.3553C13.3918 9.33277 13.4242 9.26012 13.4539 9.19317L15.15 9.94743C15.1217 10.011 15.0858 10.0915 15.0721 10.1218L13.3816 9.3553ZM13.4539 9.19316C13.4668 9.16416 13.4811 9.1271 13.5015 9.06961L15.251 9.68987C15.2258 9.76096 15.1925 9.85181 15.15 9.94744L13.4539 9.19316ZM13.5014 9.06986C14.13 7.29525 15.7122 6.17299 17.5936 6.17299V8.02917C16.5016 8.02917 15.6182 8.65311 15.2511 9.68962L13.5014 9.06986ZM17.5936 6.17299C20.1062 6.17299 22.0231 8.36392 22.0231 10.8979H20.1669C20.1669 9.24466 18.9424 8.02917 17.5936 8.02917V6.17299ZM22.0231 10.8978L22.0233 16.3093L20.1671 16.3094L20.1669 10.8979L22.0231 10.8978ZM22.0233 16.3093C22.0233 16.8183 21.8236 17.3016 21.4639 17.662L20.1502 16.3507C20.1575 16.3433 20.1611 16.3371 20.1631 16.3322C20.1651 16.3273 20.1671 16.3202 20.1671 16.3093H22.0233ZM21.4633 17.6626C21.103 18.0229 20.6194 18.2229 20.1099 18.2229V16.3667C20.1208 16.3667 20.128 16.3647 20.1327 16.3628C20.1374 16.3608 20.1435 16.3573 20.1508 16.3501L21.4633 17.6626ZM19.6235 16.5044L19.6236 16.5044L20.5964 18.0852L20.5963 18.0852L19.6235 16.5044ZM17.5936 8.55271C16.7112 8.55271 16.0421 9.02476 15.7445 9.86475L13.9949 9.24491C14.5537 7.66766 15.921 6.69653 17.5936 6.69653V8.55271ZM15.7438 9.86675C15.7145 9.94885 15.6765 10.0525 15.6284 10.1606L13.9326 9.40565C13.9511 9.36412 13.9701 9.31431 13.9956 9.24291L15.7438 9.86675ZM15.6282 10.1611C15.5857 10.2564 15.55 10.3369 15.5228 10.3914C15.5059 10.4252 15.4785 10.4774 15.4388 10.5352C15.3986 10.5937 15.3588 10.6379 15.3556 10.6416L13.9578 9.42025C13.96 9.41775 13.9593 9.41856 13.9582 9.41984C13.9567 9.42149 13.9531 9.42569 13.9484 9.43146C13.9435 9.43744 13.9373 9.44516 13.9304 9.45433C13.9233 9.46359 13.9162 9.47344 13.9091 9.48383C13.8945 9.50499 13.8833 9.52352 13.8754 9.53754C13.8679 9.55062 13.8634 9.55968 13.8624 9.56172C13.8613 9.56382 13.862 9.56258 13.8651 9.55583C13.8682 9.54929 13.8725 9.53987 13.8787 9.52615C13.8849 9.51256 13.8922 9.49614 13.9013 9.47585C13.9104 9.45559 13.9207 9.43237 13.9329 9.40516L15.6282 10.1611ZM14.0501 10.7333L14.0465 10.7302L15.2597 9.32538L15.2633 9.3285L14.0501 10.7333ZM15.4731 10.4624C15.3279 10.7365 14.9132 11.4542 13.7321 13.4993L12.1247 12.5709C13.3224 10.4971 13.7087 9.82781 13.833 9.59318L15.4731 10.4624ZM13.7317 13.4999C13.8059 13.3716 13.8266 13.2168 13.7884 13.073L11.9945 13.5498C11.9065 13.2185 11.9531 12.8675 12.1251 12.5702L13.7317 13.4999ZM13.7877 13.0701C13.7495 12.9283 13.6556 12.8042 13.525 12.7289L12.597 14.3364C12.2989 14.1643 12.084 13.8821 11.9953 13.5527L13.7877 13.0701ZM13.5233 12.7279C13.4177 12.6672 13.3149 12.6676 13.244 12.6867C13.1733 12.7057 13.0827 12.7573 13.0206 12.8653L14.6305 13.7893C14.226 14.4941 13.3016 14.7411 12.5988 14.3374L13.5233 12.7279ZM13.0219 12.8631L14.0155 11.1428L15.6229 12.0712L14.6293 13.7915L13.0219 12.8631ZM14.0161 11.1418C14.2842 10.679 14.8313 10.4474 15.3562 10.5895L14.8713 12.3812C15.1659 12.4609 15.473 12.33 15.6223 12.0722L14.0161 11.1418ZM15.3539 10.5889C15.8746 10.7284 16.2358 11.2002 16.2358 11.7382H14.3797C14.3797 12.0394 14.5818 12.3037 14.8736 12.3818L15.3539 10.5889ZM16.2358 11.7382V17.1463H14.3797V11.7382H16.2358ZM16.2358 17.1463C16.2358 17.0406 16.1967 16.9444 16.1323 16.8709C16.0681 16.7974 15.9548 16.7216 15.7979 16.7112L15.676 18.5634C14.8947 18.512 14.3797 17.8314 14.3797 17.1463H16.2358ZM15.7859 16.7105C15.6763 16.7047 15.5423 16.7449 15.4406 16.8465L16.7519 18.1602C16.4589 18.4527 16.0704 18.5844 15.6879 18.5641L15.7859 16.7105ZM15.44 16.8471C15.3519 16.9352 15.3029 17.0558 15.3029 17.1768H17.1591C17.1591 17.5455 17.0144 17.8977 16.7525 18.1596L15.44 16.8471ZM15.3029 17.1768V13.6398H17.1591V17.1768H15.3029ZM15.3029 13.6398C15.3029 12.9826 15.8357 12.4499 16.4929 12.4499V14.306C16.8609 14.306 17.1591 14.0078 17.1591 13.6398H15.3029ZM16.4929 12.4499C17.1498 12.4499 17.6829 12.9821 17.6829 13.6398H15.8267C15.8267 14.008 16.1254 14.306 16.4929 14.306V12.4499ZM17.6829 13.6399L17.6828 17.9808L15.8266 17.9808L15.8267 13.6398L17.6829 13.6399ZM17.6828 17.9808C17.6828 17.7227 17.4744 17.5143 17.2163 17.5143V19.3705C16.4492 19.3705 15.8266 18.7479 15.8266 17.9808H17.6828ZM17.2163 17.5143C17.0955 17.5143 16.9754 17.563 16.8875 17.6507L18.1988 18.9645C17.9367 19.2261 17.5844 19.3705 17.2163 19.3705V17.5143ZM16.8863 17.652C16.7985 17.7399 16.7499 17.86 16.7499 17.9808H18.606C18.606 18.3489 18.4616 18.7012 18.2 18.9633L16.8863 17.652ZM16.7499 17.9808V13.6398H18.606V17.9808H16.7499ZM16.7499 13.6398C16.7499 12.983 17.2821 12.4499 17.9398 12.4499V14.306C18.308 14.306 18.606 14.0074 18.606 13.6398H16.7499ZM17.9398 12.4499C18.5967 12.4499 19.1298 12.9821 19.1298 13.6398H17.2736C17.2736 14.008 17.5723 14.306 17.9398 14.306V12.4499ZM19.1298 13.6399L19.1297 17.1362L17.2735 17.1361L17.2736 13.6398L19.1298 13.6399ZM19.1297 17.1362V17.1768H17.2735V17.1362H19.1297ZM19.1297 17.1768C19.1297 16.9182 18.9208 16.7102 18.6634 16.7102V18.5664C17.8966 18.5664 17.2735 17.9442 17.2735 17.1768H19.1297ZM18.6634 16.7102C18.5401 16.7102 18.4207 16.7603 18.3352 16.8455L19.6452 18.1605C19.3846 18.4201 19.0337 18.5664 18.6634 18.5664V16.7102ZM18.3346 16.8461C18.2458 16.9347 18.1969 17.0558 18.1969 17.1766H20.0531C20.0531 17.5451 19.9085 17.8978 19.6459 18.1599L18.3346 16.8461ZM18.1969 17.1766V13.6397H20.0531V17.1766H18.1969ZM18.1969 13.6397C18.1969 12.9828 18.7292 12.4497 19.3869 12.4497V14.3059C19.7551 14.3059 20.0531 14.0072 20.0531 13.6397H18.1969ZM19.3869 12.4497C20.0437 12.4497 20.5769 12.9819 20.5769 13.6397H18.7207C18.7207 14.0078 19.0194 14.3059 19.3869 14.3059V12.4497ZM20.5769 13.6398L20.5766 16.3096L18.7204 16.3094L18.7207 13.6395L20.5769 13.6398ZM20.5766 16.3095C20.5766 16.052 20.3686 15.8432 20.1099 15.8432V17.6994C19.3426 17.6994 18.7204 17.0763 18.7204 16.3095H20.5766ZM20.1099 15.8432C19.9882 15.8432 19.8681 15.8925 19.7808 15.9796L21.0921 17.2933C20.831 17.554 20.4793 17.6994 20.1099 17.6994V15.8432ZM19.7802 15.9802C19.6918 16.0686 19.6433 16.1892 19.6433 16.3095H21.4995C21.4995 16.677 21.3556 17.0299 21.0927 17.2927L19.7802 15.9802ZM19.6433 16.3094L19.6435 10.8979L21.4997 10.898L21.4995 16.3095L19.6433 16.3094ZM19.6435 10.898C19.6435 9.52124 18.6425 8.55277 17.5936 8.55277V6.69658C19.829 6.69658 21.4997 8.66526 21.4997 10.898H19.6435ZM16.7012 7.36971L16.7013 7.36965L18.486 7.87959L18.486 7.87964L16.7012 7.36971Z" fill="#634686" mask="url(#path-1-inside-1_211_2338)"/>
<path d="M11.6274 22.2697C11.5031 22.3445 11.3424 22.3041 11.2681 22.18C11.1936 22.056 11.234 21.8951 11.3578 21.8207M11.6274 22.2697L13.89 19.2252C14.1086 19.0938 14.3969 19.1456 14.5317 19.3406M11.6274 22.2697L14.6602 20.4502H14.6604L14.6607 20.45M11.6274 22.2697L15.8248 20.8284C15.9307 20.7647 16.0055 20.664 16.0353 20.5445M11.3578 21.8207L14.3908 20.0012C14.4967 19.9376 14.5717 19.8367 14.6015 19.7175M11.3578 21.8207L11.3885 21.8719L11.4925 22.0452L11.4927 22.0456L11.5395 22.1237L11.5965 22.2186L11.5966 22.2186L11.5967 22.2185L11.5969 22.2184M11.3578 21.8207L11.3885 21.8718M14.6015 19.7175C14.6343 19.5866 14.6094 19.4528 14.5317 19.3406M14.6015 19.7175L14.6764 19.7362L14.6692 19.5824C14.6643 19.4764 14.6333 19.3825 14.5809 19.3069L14.5808 19.3067L14.5317 19.3406M14.6015 19.7175L14.6764 19.7362L14.6838 19.8951L14.5319 19.9861H14.5317L14.4215 20.0523L14.4215 20.0523L14.4215 20.0523L11.3886 21.8718M14.5317 19.3406L14.5807 19.3066L12.3414 23.4591C12.4367 23.4018 12.4681 23.278 12.4104 23.1818C12.3532 23.0865 12.2289 23.0551 12.1332 23.1125L15.166 21.2931C15.2357 21.2512 15.3088 21.2197 15.3834 21.1979L15.8538 20.8767L15.8538 20.8767L15.8797 20.859C15.99 20.7837 16.0631 20.6793 16.0931 20.5591L16.0931 20.5589L16.0353 20.5445M11.3886 21.8718C11.4841 21.8147 11.6083 21.8456 11.6659 21.9411C11.666 21.9413 11.6661 21.9415 11.6663 21.9417C11.7235 22.0378 11.6919 22.1612 11.5969 22.2184M11.3886 21.8718C11.3886 21.8718 11.3886 21.8718 11.3885 21.8718M11.3886 21.8718L11.3885 21.8718M11.5969 22.2184L14.6295 20.3991L14.6296 20.3991L14.6297 20.399C14.6298 20.3989 14.6299 20.3989 14.63 20.3988L14.6602 20.4492L14.6604 20.4495L14.6607 20.45M11.5969 22.2184L11.4929 22.0454L11.4927 22.0451L11.4575 21.9866L11.3885 21.8718M14.6607 20.45V20.3795C14.7193 20.3412 14.7728 20.2968 14.8206 20.2472L15.3199 19.9866L15.3199 19.9866L15.3475 19.9722C15.4278 19.9303 15.5087 19.9107 15.5856 19.9107C15.6271 19.9107 15.67 19.9159 15.7137 19.9267C15.7137 19.9267 15.7137 19.9267 15.7138 19.9267C15.7139 19.9268 15.7141 19.9268 15.7142 19.9268L15.8119 19.5344M14.6607 20.45L15.3498 20.0366C15.4554 19.9733 15.5791 19.9548 15.6993 19.9846C15.8188 20.0145 15.9197 20.0892 15.9832 20.195C16.0466 20.301 16.0652 20.4251 16.0353 20.5445M15.8119 19.5344C15.8119 19.5344 15.8119 19.5344 15.8118 19.5344M15.8119 19.5344C16.051 19.5942 16.2544 19.7451 16.381 19.9562L16.4321 19.9255M15.8119 19.5344L15.8263 19.4765M15.8118 19.5344L15.7138 19.9267C15.8496 19.9607 15.9621 20.044 16.0341 20.1642C16.0342 20.1642 16.0342 20.1643 16.0343 20.1644C16.0343 20.1644 16.0343 20.1644 16.0343 20.1644C16.1065 20.2851 16.1269 20.4236 16.0931 20.5588L16.0931 20.5589L16.0353 20.5445M15.8118 19.5344C15.8118 19.5344 15.8118 19.5344 15.8117 19.5344L15.8111 19.5342C15.7394 19.5164 15.6668 19.5073 15.5945 19.5067M15.8118 19.5344L15.8263 19.4765M15.3742 21.6398L15.6358 21.4828L15.9056 21.6419C15.9864 21.6896 16.0474 21.7493 16.0887 21.8183L16.0889 21.8185C16.0889 21.8186 16.089 21.8187 16.089 21.8187L16.0381 21.8493M15.3742 21.6398L16.1481 22.2134C16.1818 22.0777 16.1612 21.9394 16.089 21.8188L16.0381 21.8493M15.3742 21.6398L15.4049 21.6909M15.3742 21.6398L15.3742 21.6398L15.4049 21.6909M16.0381 21.8493C15.9071 21.6311 15.6229 21.5601 15.4049 21.6909M16.0381 21.8493C16.1017 21.9551 16.1203 22.0794 16.0904 22.199L15.4049 21.6909M16.4803 21.5691C16.4825 21.5727 16.4847 21.5763 16.4869 21.5799L16.4803 21.5691ZM16.4803 21.5691C16.4646 21.5813 16.4487 21.5932 16.4325 21.6048C16.4336 21.6066 16.4347 21.6084 16.4357 21.6101L16.4803 21.5691ZM16.408 20.8613C16.4415 20.7972 16.4676 20.7288 16.4855 20.657L16.408 20.8613ZM16.408 20.8613C16.4247 20.8716 16.4412 20.8824 16.4576 20.8934C16.4948 20.8241 16.5237 20.7498 16.5433 20.6714C16.6071 20.4163 16.5676 20.1515 16.4321 19.9255M16.408 20.8613L16.4855 20.6569C16.5453 20.4178 16.5076 20.1675 16.3812 19.9565L16.3811 19.9563C16.3811 19.9562 16.381 19.9562 16.381 19.9562L16.4321 19.9255M16.4321 19.9255C16.2968 19.6999 16.0816 19.5403 15.8263 19.4765M15.8263 19.4765L15.5892 19.4467M15.5892 19.4467C15.5914 19.4667 15.5931 19.4867 15.5945 19.5067M15.5892 19.4467C15.588 19.4467 15.5868 19.4467 15.5856 19.4467C15.4286 19.4467 15.2745 19.4869 15.1328 19.5608M15.5892 19.4467L15.1328 19.5608M15.5945 19.5067C15.5952 19.5176 15.5958 19.5284 15.5963 19.5393L15.5856 19.5398L15.2975 19.5532M15.5945 19.5067C15.5915 19.5067 15.5885 19.5066 15.5856 19.5067C15.4876 19.5067 15.3905 19.5224 15.2975 19.5532M15.2975 19.5532L15.1328 19.5608M15.2975 19.5532C15.2502 19.5688 15.204 19.5883 15.1593 19.6117C15.1431 19.6201 15.1271 19.6291 15.1113 19.6386L15.1111 19.6387L15.0781 19.6585M15.1328 19.5608L14.8683 19.7843L14.8684 19.7843L15.0517 19.8302C15.0517 19.8302 15.0517 19.8302 15.0517 19.8303C15.066 19.7732 15.0747 19.7157 15.0781 19.6585M15.1328 19.5608L15.0619 19.4251M15.1328 19.5608C15.1254 19.4027 15.0838 19.247 15.0038 19.1081C14.9856 19.1161 14.9676 19.1246 14.9497 19.1334M15.0781 19.6585C15.08 19.6267 15.0802 19.5949 15.0788 19.5633C15.0767 19.5168 15.071 19.4706 15.0619 19.4251M15.0781 19.6585L15.0619 19.4251M15.0619 19.4251L14.9181 19.1494C14.9286 19.144 14.9391 19.1386 14.9497 19.1334M15.0619 19.4251L14.9132 19.0764C14.9261 19.0951 14.9383 19.1141 14.9497 19.1334M15.0619 19.4251C15.0416 19.3231 15.0038 19.2246 14.9497 19.1334M16.1414 21.2423L16.2207 21.1078C16.1863 21.1399 16.1494 21.1696 16.1101 21.1964C16.0949 21.2068 16.0795 21.2167 16.0637 21.2262L16.0635 21.2263L16.0299 21.2464L16.1414 21.2423ZM8.73055 19.0826L8.67779 19.0549C8.66809 19.0723 8.64394 19.1158 8.60828 19.1801C8.59945 19.196 8.58991 19.2132 8.57971 19.2316C8.59789 19.2406 8.61623 19.2486 8.6346 19.2555C8.66598 19.199 8.69795 19.1414 8.73055 19.0826ZM12.8775 24.3533C12.8775 24.3533 12.8774 24.3533 12.8774 24.3534L12.8775 24.3533Z" fill="#634686" stroke="#634686" stroke-width="0.928093"/>
<path d="M24.5793 19.9187L24.5792 19.9188L24.5793 19.9187ZM24.5793 19.9187C24.482 19.7445 24.486 19.53 24.589 19.3583L24.5793 19.9187ZM18.8377 19.5065C18.7652 19.5071 18.6923 19.5162 18.6203 19.5343L18.8377 19.5065ZM18.8377 19.5065C18.839 19.4865 18.8408 19.4666 18.8429 19.4466L18.8377 19.5065ZM24.1616 20.2442L24.1222 20.1732L24.1616 20.2442ZM23.0435 21.8717C23.0434 21.8716 23.0433 21.8716 23.0432 21.8715L23.0433 21.8716L23.0435 21.8717ZM21.5546 24.3536C21.5545 24.3536 21.5544 24.3535 21.5543 24.3534L21.5546 24.3536ZM21.5541 24.3533L21.5543 24.3534L21.5541 24.3533Z" fill="#634686" stroke="#634686" stroke-width="0.928093"/>
</svg>
