<svg width="23" height="24" viewBox="0 0 23 24" fill="none" xmlns="http://www.w3.org/2000/svg">
<path opacity="0.1" fill-rule="evenodd" clip-rule="evenodd" d="M0.614624 12.0485C0.614624 5.8976 5.60088 0.911346 11.7517 0.911346C17.9026 0.911346 22.8888 5.8976 22.8888 12.0485C22.8888 18.1993 17.9026 23.1856 11.7517 23.1856C5.60088 23.1856 0.614624 18.1993 0.614624 12.0485Z" fill="white"/>
<path fill-rule="evenodd" clip-rule="evenodd" d="M11.7522 6.10867C10.1391 6.10867 9.93662 6.11573 9.30304 6.14456C8.67069 6.17352 8.23906 6.27363 7.86139 6.42052C7.47072 6.57223 7.13932 6.77517 6.80917 7.10545C6.47876 7.43561 6.27582 7.76701 6.12361 8.15755C5.97635 8.53535 5.87611 8.9671 5.84765 9.5992C5.81931 10.2328 5.81189 10.4354 5.81189 12.0485C5.81189 13.6617 5.81907 13.8635 5.84778 14.4971C5.87686 15.1295 5.97697 15.5611 6.12373 15.9388C6.27557 16.3294 6.47851 16.6608 6.8088 16.991C7.13883 17.3214 7.47022 17.5248 7.86064 17.6765C8.23857 17.8234 8.67032 17.9235 9.30254 17.9525C9.93613 17.9813 10.1385 17.9884 11.7515 17.9884C13.3648 17.9884 13.5666 17.9813 14.2002 17.9525C14.8325 17.9235 15.2647 17.8234 15.6426 17.6765C16.0331 17.5248 16.364 17.3214 16.6941 16.991C17.0245 16.6608 17.2274 16.3294 17.3796 15.9389C17.5257 15.5611 17.6259 15.1293 17.6556 14.4972C17.6841 13.8636 17.6915 13.6617 17.6915 12.0485C17.6915 10.4354 17.6841 10.2329 17.6556 9.59933C17.6259 8.96698 17.5257 8.53535 17.3796 8.15768C17.2274 7.76701 17.0245 7.43561 16.6941 7.10545C16.3637 6.77505 16.0333 6.57211 15.6422 6.42052C15.2636 6.27363 14.8317 6.17352 14.1993 6.14456C13.5658 6.11573 13.364 6.10867 11.7504 6.10867H11.7522ZM11.2194 7.17907C11.3775 7.17882 11.554 7.17907 11.7522 7.17907C13.3382 7.17907 13.5261 7.18476 14.1524 7.21322C14.7315 7.2397 15.0459 7.33647 15.2552 7.41778C15.5324 7.52544 15.7301 7.65413 15.9378 7.86203C16.1457 8.06992 16.2744 8.26792 16.3823 8.54511C16.4636 8.75424 16.5605 9.06856 16.5869 9.6477C16.6153 10.2739 16.6215 10.462 16.6215 12.0472C16.6215 13.6323 16.6153 13.8204 16.5869 14.4466C16.5604 15.0257 16.4636 15.3401 16.3823 15.5492C16.2747 15.8264 16.1457 16.0238 15.9378 16.2315C15.7299 16.4394 15.5326 16.5681 15.2552 16.6758C15.0461 16.7575 14.7315 16.854 14.1524 16.8805C13.5263 16.9089 13.3382 16.9151 11.7522 16.9151C10.1661 16.9151 9.97818 16.9089 9.35202 16.8805C8.77288 16.8537 8.45856 16.757 8.24906 16.6757C7.97187 16.568 7.77387 16.4393 7.56598 16.2314C7.35808 16.0235 7.22939 15.826 7.12148 15.5487C7.04018 15.3396 6.94328 15.0252 6.91692 14.4461C6.88846 13.8199 6.88277 13.6319 6.88277 12.0457C6.88277 10.4595 6.88846 10.2724 6.91692 9.64621C6.94341 9.06708 7.04018 8.75276 7.12148 8.54338C7.22914 8.26618 7.35808 8.06819 7.56598 7.86029C7.77387 7.6524 7.97187 7.5237 8.24906 7.4158C8.45844 7.33412 8.77288 7.2376 9.35202 7.21099C9.89997 7.18624 10.1123 7.17882 11.2194 7.17758V7.17907ZM14.9229 8.16533C14.5293 8.16533 14.2101 8.48423 14.2101 8.87787C14.2101 9.27138 14.5293 9.59065 14.9229 9.59065C15.3164 9.59065 15.6356 9.27138 15.6356 8.87787C15.6356 8.48435 15.3164 8.16533 14.9229 8.16533ZM11.7522 8.99815C10.0677 8.99815 8.70189 10.3639 8.70189 12.0485C8.70189 13.7331 10.0677 15.0983 11.7522 15.0983C13.4368 15.0983 14.8021 13.7331 14.8021 12.0485C14.8021 10.3639 13.4368 8.99815 11.7522 8.99815ZM11.7522 10.0686C12.8457 10.0686 13.7322 10.955 13.7322 12.0485C13.7322 13.1419 12.8457 14.0285 11.7522 14.0285C10.6587 14.0285 9.77227 13.1419 9.77227 12.0485C9.77227 10.955 10.6587 10.0686 11.7522 10.0686Z" fill="white"/>
</svg>
