<svg width="24" height="21" viewBox="0 0 24 21" fill="none" xmlns="http://www.w3.org/2000/svg">
<mask id="path-1-inside-1_211_2339" fill="white">
<path d="M15.11 10.2948C14.9424 10.2948 14.7867 10.2487 14.6485 10.1746V10.1765C14.6485 10.4402 14.546 10.6879 14.36 10.8734C14.1741 11.0593 13.9266 11.1618 13.6632 11.1618C13.4932 11.1618 13.3356 11.1146 13.1958 11.0385C13.1817 11.2797 13.0853 11.5052 12.9133 11.6774C12.7273 11.8634 12.4798 11.9659 12.2163 11.9659C11.6926 11.9659 11.2674 11.5543 11.2368 11.0383C11.0747 11.1259 10.8915 11.1718 10.7026 11.1597C10.1875 11.1259 9.78409 10.6808 9.78409 10.1462V5.71456L9.27947 6.5888C9.08727 6.92318 8.72749 7.13079 8.34012 7.13079C8.15136 7.13079 7.9649 7.08126 7.79977 6.98664C7.59412 6.86742 7.44702 6.67604 7.38585 6.44709C7.32435 6.21799 7.35617 5.9784 7.47506 5.77306C7.47522 5.77306 9.12613 2.91417 9.22685 2.73856C9.23882 2.71215 9.27293 2.63557 9.30196 2.5703C9.32967 2.50798 9.35345 2.44403 9.37624 2.37974C9.87411 0.97418 11.1069 0.101078 12.5936 0.101078C14.5243 0.101078 16.095 1.80429 16.095 3.89785L16.0952 9.30934C16.0952 9.57271 15.9928 9.82018 15.807 10.0063C15.6211 10.1923 15.3736 10.2948 15.1099 10.2948L15.11 10.2948ZM12.5936 0.624621C11.3161 0.624621 10.2979 1.34621 9.86972 2.55483C9.84233 2.63158 9.8138 2.70833 9.78051 2.78311C9.68391 2.99975 9.68391 2.99974 9.65669 3.0309L9.65308 3.02778C9.51828 3.28214 9.11781 3.97565 7.92838 6.03509C7.87951 6.11954 7.86655 6.21761 7.89148 6.31141C7.91673 6.40522 7.97725 6.48426 8.06105 6.53264C8.32114 6.68203 8.67734 6.58561 8.82558 6.32732L9.81922 4.60702C9.87858 4.50452 9.99862 4.45418 10.1137 4.48534C10.2282 4.51601 10.3077 4.61981 10.3077 4.73821V10.1463C10.3077 10.4015 10.5003 10.6217 10.7369 10.6373C10.8734 10.6445 11.0006 10.5988 11.0962 10.5033C11.1832 10.4164 11.231 10.3007 11.231 10.1768V6.63985C11.231 6.49521 11.3483 6.37795 11.4929 6.37795C11.6376 6.37795 11.7548 6.49504 11.7548 6.63985L11.7547 10.9808C11.7547 11.2353 11.9618 11.4424 12.2163 11.4424C12.34 11.4424 12.4561 11.3945 12.5431 11.3076C12.6301 11.2205 12.6779 11.1044 12.6779 10.9808V6.63984C12.6779 6.4952 12.795 6.37794 12.9398 6.37794C13.0845 6.37794 13.2017 6.49504 13.2017 6.63984L13.2016 10.1362V10.1768C13.2016 10.4312 13.4087 10.6383 13.6634 10.6383C13.7869 10.6383 13.9026 10.5902 13.9902 10.503C14.0771 10.4162 14.125 10.3005 14.125 10.1766V6.63966C14.125 6.49502 14.2421 6.37776 14.3869 6.37776C14.5316 6.37776 14.6488 6.49485 14.6488 6.63966L14.6485 9.30947C14.6485 9.56415 14.8556 9.77127 15.1099 9.77127C15.2338 9.77127 15.3495 9.72322 15.4365 9.63647C15.5237 9.54923 15.5714 9.43312 15.5714 9.30947L15.5716 3.89798C15.5716 2.09325 14.2357 0.624675 12.5936 0.624675L12.5936 0.624621Z"/>
</mask>
<path d="M15.11 10.2948C14.9424 10.2948 14.7867 10.2487 14.6485 10.1746V10.1765C14.6485 10.4402 14.546 10.6879 14.36 10.8734C14.1741 11.0593 13.9266 11.1618 13.6632 11.1618C13.4932 11.1618 13.3356 11.1146 13.1958 11.0385C13.1817 11.2797 13.0853 11.5052 12.9133 11.6774C12.7273 11.8634 12.4798 11.9659 12.2163 11.9659C11.6926 11.9659 11.2674 11.5543 11.2368 11.0383C11.0747 11.1259 10.8915 11.1718 10.7026 11.1597C10.1875 11.1259 9.78409 10.6808 9.78409 10.1462V5.71456L9.27947 6.5888C9.08727 6.92318 8.72749 7.13079 8.34012 7.13079C8.15136 7.13079 7.9649 7.08126 7.79977 6.98664C7.59412 6.86742 7.44702 6.67604 7.38585 6.44709C7.32435 6.21799 7.35617 5.9784 7.47506 5.77306C7.47522 5.77306 9.12613 2.91417 9.22685 2.73856C9.23882 2.71215 9.27293 2.63557 9.30196 2.5703C9.32967 2.50798 9.35345 2.44403 9.37624 2.37974C9.87411 0.97418 11.1069 0.101078 12.5936 0.101078C14.5243 0.101078 16.095 1.80429 16.095 3.89785L16.0952 9.30934C16.0952 9.57271 15.9928 9.82018 15.807 10.0063C15.6211 10.1923 15.3736 10.2948 15.1099 10.2948L15.11 10.2948ZM12.5936 0.624621C11.3161 0.624621 10.2979 1.34621 9.86972 2.55483C9.84233 2.63158 9.8138 2.70833 9.78051 2.78311C9.68391 2.99975 9.68391 2.99974 9.65669 3.0309L9.65308 3.02778C9.51828 3.28214 9.11781 3.97565 7.92838 6.03509C7.87951 6.11954 7.86655 6.21761 7.89148 6.31141C7.91673 6.40522 7.97725 6.48426 8.06105 6.53264C8.32114 6.68203 8.67734 6.58561 8.82558 6.32732L9.81922 4.60702C9.87858 4.50452 9.99862 4.45418 10.1137 4.48534C10.2282 4.51601 10.3077 4.61981 10.3077 4.73821V10.1463C10.3077 10.4015 10.5003 10.6217 10.7369 10.6373C10.8734 10.6445 11.0006 10.5988 11.0962 10.5033C11.1832 10.4164 11.231 10.3007 11.231 10.1768V6.63985C11.231 6.49521 11.3483 6.37795 11.4929 6.37795C11.6376 6.37795 11.7548 6.49504 11.7548 6.63985L11.7547 10.9808C11.7547 11.2353 11.9618 11.4424 12.2163 11.4424C12.34 11.4424 12.4561 11.3945 12.5431 11.3076C12.6301 11.2205 12.6779 11.1044 12.6779 10.9808V6.63984C12.6779 6.4952 12.795 6.37794 12.9398 6.37794C13.0845 6.37794 13.2017 6.49504 13.2017 6.63984L13.2016 10.1362V10.1768C13.2016 10.4312 13.4087 10.6383 13.6634 10.6383C13.7869 10.6383 13.9026 10.5902 13.9902 10.503C14.0771 10.4162 14.125 10.3005 14.125 10.1766V6.63966C14.125 6.49502 14.2421 6.37776 14.3869 6.37776C14.5316 6.37776 14.6488 6.49485 14.6488 6.63966L14.6485 9.30947C14.6485 9.56415 14.8556 9.77127 15.1099 9.77127C15.2338 9.77127 15.3495 9.72322 15.4365 9.63647C15.5237 9.54923 15.5714 9.43312 15.5714 9.30947L15.5716 3.89798C15.5716 2.09325 14.2357 0.624675 12.5936 0.624675L12.5936 0.624621Z" fill="#634686"/>
<path d="M15.11 10.2948V9.36668H18.389L15.5964 11.0852L15.11 10.2948ZM14.6485 10.1746H13.7204V8.62383L15.0871 9.35664L14.6485 10.1746ZM14.36 10.8734L13.7038 10.2171L13.7046 10.2162L14.36 10.8734ZM13.1958 11.0385L12.2693 10.9843L12.3547 9.52366L13.6397 10.2234L13.1958 11.0385ZM12.9133 11.6774L13.5699 12.3333L13.5695 12.3337L12.9133 11.6774ZM11.2368 11.0383L10.7955 10.2219L12.0768 9.52931L12.1632 10.9833L11.2368 11.0383ZM10.7026 11.1597L10.6431 12.0859L10.6419 12.0858L10.7026 11.1597ZM9.78409 5.71456L8.98029 5.2506L10.7122 2.25019V5.71456H9.78409ZM9.27947 6.5888L8.47482 6.1263L8.47567 6.12483L9.27947 6.5888ZM7.79977 6.98664L7.33834 7.79191L7.33428 7.78956L7.79977 6.98664ZM7.38585 6.44709L8.28221 6.20648L8.28249 6.20752L7.38585 6.44709ZM7.47506 5.77306L6.67189 5.30801L6.94 4.84497H7.47506V5.77306ZM9.22685 2.73856L10.0721 3.12181L10.0539 3.162L10.0319 3.20028L9.22685 2.73856ZM9.30196 2.5703L8.45394 2.19317L8.45395 2.19316L9.30196 2.5703ZM9.37624 2.37974L10.2511 2.68962L10.251 2.68987L9.37624 2.37974ZM16.095 3.89785L15.1669 3.89788V3.89785H16.095ZM16.0952 9.30934L17.0233 9.30932V9.30934H16.0952ZM15.807 10.0063L16.4639 10.662L16.4633 10.6626L15.807 10.0063ZM15.1099 10.2948V11.2229H11.8309L14.6235 9.50438L15.1099 10.2948ZM12.5936 0.624621V-0.303472H13.824L13.486 0.879588L12.5936 0.624621ZM9.86972 2.55483L10.7445 2.86475L10.7438 2.86675L9.86972 2.55483ZM9.78051 2.78311L10.6284 3.16056L10.6282 3.16105L9.78051 2.78311ZM9.65669 3.0309L10.3556 3.64155L9.74844 4.33644L9.05007 3.7333L9.65669 3.0309ZM9.65308 3.02778L8.83304 2.59318L9.37836 1.56422L10.2597 2.32538L9.65308 3.02778ZM7.92838 6.03509L8.73206 6.49926L8.73167 6.49992L7.92838 6.03509ZM7.89148 6.31141L6.99529 6.55269L6.99452 6.54979L7.89148 6.31141ZM8.06105 6.53264L7.59878 7.33741L7.59705 7.33641L8.06105 6.53264ZM8.82558 6.32732L8.02064 5.86534L8.02192 5.86313L8.82558 6.32732ZM9.81922 4.60702L9.01555 4.14283L9.01611 4.14185L9.81922 4.60702ZM10.1137 4.48534L9.87357 5.38182L9.87127 5.3812L10.1137 4.48534ZM10.7369 10.6373L10.6879 11.5642L10.676 11.5634L10.7369 10.6373ZM11.0962 10.5033L11.7525 11.1596L11.7519 11.1602L11.0962 10.5033ZM11.7548 6.63985H12.6829V6.63988L11.7548 6.63985ZM11.7547 10.9808H10.8266V10.9808L11.7547 10.9808ZM12.5431 11.3076L13.2 11.9633L13.1988 11.9645L12.5431 11.3076ZM13.2017 6.63984H14.1298V6.63989L13.2017 6.63984ZM13.2016 10.1362H12.2735V10.1361L13.2016 10.1362ZM13.9902 10.503L14.6459 11.1599L14.6452 11.1605L13.9902 10.503ZM14.6488 6.63966H15.5769V6.63977L14.6488 6.63966ZM14.6485 9.30947H13.7204V9.30935L14.6485 9.30947ZM15.4365 9.63647L16.0927 10.2927L16.0921 10.2933L15.4365 9.63647ZM15.5714 9.30947H14.6433V9.30944L15.5714 9.30947ZM15.5716 3.89798H16.4997V3.89801L15.5716 3.89798ZM12.5936 0.624675V1.55277H11.3632L11.7012 0.369708L12.5936 0.624675ZM15.11 11.2229C14.7682 11.2229 14.4631 11.1283 14.2099 10.9925L15.0871 9.35664C15.0991 9.36307 15.1067 9.36552 15.1097 9.36634C15.1123 9.36704 15.1119 9.36668 15.11 9.36668V11.2229ZM15.5766 10.1746V10.1765H13.7204V10.1746H15.5766ZM15.5766 10.1765C15.5766 10.6856 15.3768 11.17 15.0154 11.5305L13.7046 10.2162C13.7113 10.2096 13.7146 10.2039 13.7165 10.1993C13.7184 10.1947 13.7204 10.1875 13.7204 10.1765H15.5766ZM15.0163 11.5296C14.6561 11.8898 14.1725 12.0899 13.6632 12.0899V10.2337C13.6739 10.2337 13.6809 10.2318 13.6856 10.2298C13.6904 10.2279 13.6965 10.2243 13.7038 10.2171L15.0163 11.5296ZM13.6632 12.0899C13.317 12.0899 13.0081 11.993 12.752 11.8536L13.6397 10.2234C13.6518 10.23 13.6594 10.2325 13.6625 10.2333C13.6651 10.234 13.6649 10.2337 13.6632 10.2337V12.0899ZM14.1223 11.0927C14.0956 11.5495 13.9103 11.9925 13.5699 12.3333L12.2567 11.0215C12.2601 11.0181 12.2621 11.015 12.2638 11.0112C12.2656 11.007 12.2685 10.9985 12.2693 10.9843L14.1223 11.0927ZM13.5695 12.3337C13.2093 12.6939 12.7257 12.894 12.2163 12.894V11.0378C12.2271 11.0378 12.2342 11.0358 12.2389 11.0339C12.2436 11.0319 12.2498 11.0284 12.257 11.0212L13.5695 12.3337ZM12.2163 12.894C11.1917 12.894 10.3695 12.0898 10.3103 11.0934L12.1632 10.9833C12.1642 10.9991 12.1706 11.0129 12.182 11.0238C12.1876 11.0291 12.1933 11.0326 12.1982 11.0346C12.2025 11.0363 12.208 11.0378 12.2163 11.0378V12.894ZM11.678 11.8548C11.3783 12.0168 11.0228 12.1103 10.6431 12.0859L10.7621 10.2335C10.7621 10.2335 10.7641 10.2337 10.769 10.2326C10.7742 10.2313 10.7833 10.2284 10.7955 10.2219L11.678 11.8548ZM10.6419 12.0858C9.61139 12.0182 8.856 11.1419 8.856 10.1462H10.7122C10.7122 10.1776 10.7236 10.2017 10.7379 10.2175C10.7518 10.2329 10.7612 10.2334 10.7634 10.2336L10.6419 12.0858ZM8.856 10.1462V5.71456H10.7122V10.1462H8.856ZM10.5879 6.17853L10.0833 7.05277L8.47567 6.12483L8.98029 5.2506L10.5879 6.17853ZM10.0841 7.0513C9.72549 7.67522 9.05795 8.05888 8.34012 8.05888V6.2027C8.39702 6.2027 8.44905 6.17114 8.47482 6.1263L10.0841 7.0513ZM8.34012 8.05888C7.98915 8.05888 7.64366 7.96685 7.33835 7.7919L8.26118 6.18138C8.28614 6.19568 8.31358 6.2027 8.34012 6.2027V8.05888ZM7.33428 7.78956C6.9176 7.54799 6.61431 7.15487 6.48921 6.68665L8.28249 6.20752C8.28164 6.20435 8.27933 6.19875 8.27486 6.19293C8.27042 6.18714 8.26632 6.18434 8.26525 6.18372L7.33428 7.78956ZM6.48949 6.68769C6.3639 6.21983 6.42965 5.72637 6.67189 5.30801L8.27823 6.23812C8.27955 6.23584 8.28187 6.23055 8.28286 6.22304C8.28386 6.21552 8.28303 6.20952 8.28221 6.20648L6.48949 6.68769ZM7.47506 4.84497C7.0198 4.9643 6.67903 5.29589 6.67648 5.30017C6.67564 5.3016 6.67437 5.30375 6.67397 5.30443C6.67374 5.30483 6.67335 5.3055 6.67321 5.30573C6.67313 5.30588 6.67296 5.30617 6.67292 5.30624C6.67279 5.30646 6.67283 5.30639 6.67318 5.30579C6.67381 5.3047 6.67487 5.30288 6.67641 5.30021C6.67946 5.29494 6.68404 5.28701 6.69009 5.27655C6.70217 5.25564 6.71993 5.2249 6.7426 5.18565C6.78793 5.10718 6.85281 4.99485 6.93099 4.85947C7.08734 4.58874 7.29685 4.22592 7.5095 3.8576C7.93552 3.11974 8.37229 2.36309 8.42176 2.27683L10.0319 3.20028C9.98069 3.28963 9.54164 4.05024 9.11699 4.78572C8.90431 5.15409 8.69477 5.51696 8.53838 5.78776C8.46019 5.92315 8.39527 6.03554 8.3499 6.1141C8.32721 6.15337 8.30939 6.18423 8.29722 6.20528C8.29114 6.21579 8.28643 6.22394 8.28322 6.2295C8.28163 6.23225 8.28031 6.23453 8.27935 6.23619C8.2789 6.23696 8.27834 6.23793 8.27781 6.23884C8.27761 6.23918 8.27702 6.24021 8.2763 6.24143C8.27585 6.2422 8.27455 6.24442 8.27368 6.24589C8.2711 6.25021 7.93032 6.58182 7.47506 6.70116V4.84497ZM8.38158 2.3553C8.3918 2.33277 8.42417 2.26012 8.45394 2.19317L10.15 2.94743C10.1217 3.01102 10.0858 3.09154 10.0721 3.12181L8.38158 2.3553ZM8.45395 2.19316C8.46684 2.16416 8.48112 2.1271 8.5015 2.06961L10.251 2.68987C10.2258 2.76096 10.1925 2.85181 10.15 2.94744L8.45395 2.19316ZM8.50141 2.06986C9.13 0.295249 10.7122 -0.827015 12.5936 -0.827015V1.02917C11.5016 1.02917 10.6182 1.65311 10.2511 2.68962L8.50141 2.06986ZM12.5936 -0.827015C15.1062 -0.827015 17.0231 1.36392 17.0231 3.89785H15.1669C15.1669 2.24466 13.9424 1.02917 12.5936 1.02917V-0.827015ZM17.0231 3.89783L17.0233 9.30932L15.1671 9.30937L15.1669 3.89788L17.0231 3.89783ZM17.0233 9.30934C17.0233 9.81829 16.8236 10.3016 16.4639 10.662L15.1502 9.35068C15.1575 9.34333 15.1611 9.33708 15.1631 9.3322C15.1651 9.32733 15.1671 9.32016 15.1671 9.30934H17.0233ZM16.4633 10.6626C16.103 11.0229 15.6194 11.2229 15.1099 11.2229V9.3667C15.1208 9.3667 15.128 9.36472 15.1327 9.36276C15.1374 9.3608 15.1435 9.35731 15.1508 9.35007L16.4633 10.6626ZM14.6235 9.50438L14.6236 9.50435L15.5964 11.0852L15.5963 11.0852L14.6235 9.50438ZM12.5936 1.55271C11.7112 1.55271 11.0421 2.02476 10.7445 2.86475L8.9949 2.24491C9.55367 0.667664 10.921 -0.303472 12.5936 -0.303472V1.55271ZM10.7438 2.86675C10.7145 2.94885 10.6765 3.05253 10.6284 3.16056L8.93264 2.40565C8.95113 2.36412 8.97013 2.31431 8.99561 2.24291L10.7438 2.86675ZM10.6282 3.16105C10.5857 3.25638 10.55 3.33688 10.5228 3.3914C10.5059 3.42525 10.4785 3.4774 10.4388 3.53517C10.3986 3.59371 10.3588 3.63785 10.3556 3.64155L8.95779 2.42025C8.95997 2.41775 8.95926 2.41856 8.95816 2.41984C8.95674 2.42149 8.95314 2.42569 8.9484 2.43146C8.9435 2.43744 8.93733 2.44516 8.93037 2.45433C8.92335 2.46359 8.91621 2.47344 8.90907 2.48383C8.89453 2.50499 8.88333 2.52352 8.87537 2.53754C8.86794 2.55062 8.86339 2.55968 8.86237 2.56172C8.86131 2.56382 8.86197 2.56258 8.86513 2.55583C8.86818 2.54929 8.87251 2.53987 8.87872 2.52615C8.88487 2.51256 8.89224 2.49614 8.90131 2.47585C8.91037 2.45559 8.92072 2.43237 8.93285 2.40516L10.6282 3.16105ZM9.05007 3.7333L9.04646 3.73019L10.2597 2.32538L10.2633 2.3285L9.05007 3.7333ZM10.4731 3.46239C10.3279 3.73646 9.9132 4.45419 8.73206 6.49926L7.1247 5.57092C8.32243 3.49712 8.70869 2.82781 8.83304 2.59318L10.4731 3.46239ZM8.73167 6.49992C8.80593 6.37159 8.82663 6.21675 8.78844 6.07304L6.99452 6.54979C6.90647 6.21847 6.95308 5.86749 7.12508 5.57025L8.73167 6.49992ZM8.78766 6.07014C8.74947 5.92828 8.6556 5.80422 8.52505 5.72886L7.59705 7.33641C7.29889 7.1643 7.084 6.88215 6.9953 6.55269L8.78766 6.07014ZM8.52331 5.72786C8.41767 5.66718 8.31492 5.66758 8.24397 5.68668C8.1733 5.70571 8.08268 5.75725 8.02064 5.86534L9.63052 6.7893C9.22604 7.49406 8.30165 7.74114 7.59878 7.33741L8.52331 5.72786ZM8.02192 5.86313L9.01555 4.14283L10.6229 5.07121L9.62925 6.79151L8.02192 5.86313ZM9.01611 4.14185C9.28418 3.67904 9.83135 3.44742 10.3562 3.58948L9.87127 5.3812C10.1659 5.46094 10.473 5.33001 10.6223 5.07219L9.01611 4.14185ZM10.3539 3.58886C10.8746 3.72835 11.2358 4.20019 11.2358 4.73821H9.37966C9.37966 5.03943 9.58184 5.30366 9.87357 5.38182L10.3539 3.58886ZM11.2358 4.73821V10.1463H9.37966V4.73821H11.2358ZM11.2358 10.1463C11.2358 10.0406 11.1967 9.94444 11.1323 9.87087C11.0681 9.79741 10.9548 9.72156 10.7979 9.71124L10.676 11.5634C9.8947 11.512 9.37966 10.8314 9.37966 10.1463H11.2358ZM10.7859 9.71053C10.6763 9.70473 10.5423 9.74489 10.4406 9.84651L11.7519 11.1602C11.4589 11.4527 11.0704 11.5844 10.6879 11.5641L10.7859 9.71053ZM10.44 9.84708C10.3519 9.93516 10.3029 10.0558 10.3029 10.1768H12.1591C12.1591 10.5455 12.0144 10.8977 11.7525 11.1596L10.44 9.84708ZM10.3029 10.1768V6.63985H12.1591V10.1768H10.3029ZM10.3029 6.63985C10.3029 5.98263 10.8357 5.44986 11.4929 5.44986V7.30604C11.8609 7.30604 12.1591 7.00778 12.1591 6.63985H10.3029ZM11.4929 5.44986C12.1498 5.44986 12.6829 5.9821 12.6829 6.63985H10.8267C10.8267 7.00799 11.1254 7.30604 11.4929 7.30604V5.44986ZM12.6829 6.63988L12.6828 10.9808L10.8266 10.9808L10.8267 6.63981L12.6829 6.63988ZM12.6828 10.9808C12.6828 10.7227 12.4744 10.5143 12.2163 10.5143V12.3705C11.4492 12.3705 10.8266 11.7479 10.8266 10.9808H12.6828ZM12.2163 10.5143C12.0955 10.5143 11.9754 10.563 11.8875 10.6507L13.1988 11.9645C12.9367 12.2261 12.5844 12.3705 12.2163 12.3705V10.5143ZM11.8863 10.652C11.7985 10.7399 11.7499 10.86 11.7499 10.9808H13.606C13.606 11.3489 13.4616 11.7012 13.2 11.9633L11.8863 10.652ZM11.7499 10.9808V6.63984H13.606V10.9808H11.7499ZM11.7499 6.63984C11.7499 5.98302 12.2821 5.44985 12.9398 5.44985V7.30604C13.308 7.30604 13.606 7.00739 13.606 6.63984H11.7499ZM12.9398 5.44985C13.5967 5.44985 14.1298 5.98209 14.1298 6.63984H12.2736C12.2736 7.00799 12.5723 7.30604 12.9398 7.30604V5.44985ZM14.1298 6.63989L14.1297 10.1362L12.2735 10.1361L12.2736 6.6398L14.1298 6.63989ZM14.1297 10.1362V10.1768H12.2735V10.1362H14.1297ZM14.1297 10.1768C14.1297 9.91815 13.9208 9.7102 13.6634 9.7102V11.5664C12.8966 11.5664 12.2735 10.9442 12.2735 10.1768H14.1297ZM13.6634 9.7102C13.5401 9.7102 13.4207 9.76035 13.3352 9.8455L14.6452 11.1605C14.3846 11.4201 14.0337 11.5664 13.6634 11.5664V9.7102ZM13.3346 9.84611C13.2458 9.93473 13.1969 10.0558 13.1969 10.1766H15.0531C15.0531 10.5451 14.9085 10.8978 14.6459 11.1599L13.3346 9.84611ZM13.1969 10.1766V6.63966H15.0531V10.1766H13.1969ZM13.1969 6.63966C13.1969 5.98282 13.7292 5.44967 14.3869 5.44967V7.30586C14.7551 7.30586 15.0531 7.00722 15.0531 6.63966H13.1969ZM14.3869 5.44967C15.0437 5.44967 15.5769 5.98191 15.5769 6.63966H13.7207C13.7207 7.0078 14.0194 7.30586 14.3869 7.30586V5.44967ZM15.5769 6.63977L15.5766 9.30958L13.7204 9.30935L13.7207 6.63954L15.5769 6.63977ZM15.5766 9.30947C15.5766 9.05202 15.3686 8.84318 15.1099 8.84318V10.6994C14.3426 10.6994 13.7204 10.0763 13.7204 9.30947H15.5766ZM15.1099 8.84318C14.9882 8.84318 14.8681 8.89247 14.7808 8.97959L16.0921 10.2933C15.831 10.554 15.4793 10.6994 15.1099 10.6994V8.84318ZM14.7802 8.98021C14.6918 9.06859 14.6433 9.1892 14.6433 9.30947H16.4995C16.4995 9.67704 16.3556 10.0299 16.0927 10.2927L14.7802 8.98021ZM14.6433 9.30944L14.6435 3.89795L16.4997 3.89801L16.4995 9.3095L14.6433 9.30944ZM14.6435 3.89798C14.6435 2.52124 13.6425 1.55277 12.5936 1.55277V-0.303418C14.829 -0.303418 16.4997 1.66526 16.4997 3.89798H14.6435ZM11.7012 0.369708L11.7013 0.369655L13.486 0.879588L13.486 0.879642L11.7012 0.369708Z" fill="#634686" mask="url(#path-1-inside-1_211_2339)"/>
<path d="M6.62738 15.2697C6.50307 15.3445 6.34236 15.3041 6.26807 15.18C6.19362 15.056 6.23396 14.8951 6.35777 14.8207M6.62738 15.2697L8.88998 12.2252C9.10858 12.0938 9.39688 12.1456 9.53168 12.3406M6.62738 15.2697L9.66025 13.4502H9.66041L9.66074 13.45M6.62738 15.2697L10.8248 13.8284C10.9307 13.7647 11.0055 13.664 11.0353 13.5445M6.35777 14.8207L9.39081 13.0012C9.49675 12.9376 9.57169 12.8367 9.60154 12.7175M6.35777 14.8207L6.38848 14.8719L6.49248 15.0452L6.49269 15.0456L6.53955 15.1237L6.59649 15.2186L6.59661 15.2186L6.59667 15.2185L6.59691 15.2184M6.35777 14.8207L6.38853 14.8718M9.60154 12.7175C9.63434 12.5866 9.60941 12.4528 9.53168 12.3406M9.60154 12.7175L9.6764 12.7362L9.66925 12.5824C9.66433 12.4764 9.63334 12.3825 9.58092 12.3069L9.58078 12.3067L9.53168 12.3406M9.60154 12.7175L9.6764 12.7362L9.68378 12.8951L9.53194 12.9861H9.53173L9.42152 13.0523L9.4215 13.0523L9.42147 13.0523L6.38865 14.8718M9.53168 12.3406L9.58074 12.3066L7.34142 16.4591C7.43665 16.4018 7.46815 16.278 7.41041 16.1818C7.35315 16.0865 7.22888 16.0551 7.13317 16.1125L10.166 14.2931C10.2357 14.2512 10.3088 14.2197 10.3834 14.1979L10.8538 13.8767L10.8538 13.8767L10.8797 13.859C10.99 13.7837 11.0631 13.6793 11.0931 13.5591L11.0931 13.5589L11.0353 13.5445M6.38865 14.8718C6.48409 14.8147 6.60833 14.8456 6.6659 14.9411C6.66602 14.9413 6.66614 14.9415 6.66627 14.9417C6.7235 15.0378 6.69193 15.1612 6.59691 15.2184M6.38865 14.8718C6.38861 14.8718 6.38857 14.8718 6.38853 14.8718M6.38865 14.8718L6.38853 14.8718M6.59691 15.2184L9.62953 13.3991L9.62959 13.3991L9.62974 13.399C9.62983 13.3989 9.62993 13.3989 9.63002 13.3988L9.66025 13.4492L9.66041 13.4495L9.66074 13.45M6.59691 15.2184L6.49292 15.0454L6.49271 15.0451L6.45753 14.9866L6.38853 14.8718M9.66074 13.45V13.3795C9.71926 13.3412 9.77281 13.2968 9.82064 13.2472L10.3199 12.9866L10.3199 12.9866L10.3475 12.9722C10.4278 12.9303 10.5087 12.9107 10.5856 12.9107C10.6271 12.9107 10.67 12.9159 10.7137 12.9267C10.7137 12.9267 10.7137 12.9267 10.7138 12.9267C10.7139 12.9268 10.7141 12.9268 10.7142 12.9268L10.8119 12.5344M9.66074 13.45L10.3498 13.0366C10.4554 12.9733 10.5791 12.9548 10.6993 12.9846C10.8188 13.0145 10.9197 13.0892 10.9832 13.195C11.0466 13.301 11.0652 13.4251 11.0353 13.5445M10.8119 12.5344C10.8119 12.5344 10.8119 12.5344 10.8118 12.5344M10.8119 12.5344C11.051 12.5942 11.2544 12.7451 11.381 12.9562L11.4321 12.9255M10.8119 12.5344L10.8263 12.4765M10.8118 12.5344L10.7138 12.9267C10.8496 12.9607 10.9621 13.044 11.0341 13.1642C11.0342 13.1642 11.0342 13.1643 11.0343 13.1644C11.0343 13.1644 11.0343 13.1644 11.0343 13.1644C11.1065 13.2851 11.1269 13.4236 11.0931 13.5588L11.0931 13.5589L11.0353 13.5445M10.8118 12.5344C10.8118 12.5344 10.8118 12.5344 10.8117 12.5344L10.8111 12.5342C10.7394 12.5164 10.6668 12.5073 10.5945 12.5067M10.8118 12.5344L10.8263 12.4765M10.3742 14.6398L10.6358 14.4828L10.9056 14.6419C10.9864 14.6896 11.0474 14.7493 11.0887 14.8183L11.0889 14.8185C11.0889 14.8186 11.089 14.8187 11.089 14.8187L11.0381 14.8493M10.3742 14.6398L11.1481 15.2134C11.1818 15.0777 11.1612 14.9394 11.089 14.8188L11.0381 14.8493M10.3742 14.6398L10.4049 14.6909M10.3742 14.6398L10.3742 14.6398L10.4049 14.6909M11.0381 14.8493C10.9071 14.6311 10.6229 14.5601 10.4049 14.6909M11.0381 14.8493C11.1017 14.9551 11.1203 15.0794 11.0904 15.199L10.4049 14.6909M11.4803 14.5691C11.4825 14.5727 11.4847 14.5763 11.4869 14.5799L11.4803 14.5691ZM11.4803 14.5691C11.4646 14.5813 11.4487 14.5932 11.4325 14.6048C11.4336 14.6066 11.4347 14.6084 11.4357 14.6101L11.4803 14.5691ZM11.408 13.8613C11.4415 13.7972 11.4676 13.7288 11.4855 13.657L11.408 13.8613ZM11.408 13.8613C11.4247 13.8716 11.4412 13.8824 11.4576 13.8934C11.4948 13.8241 11.5237 13.7498 11.5433 13.6714C11.6071 13.4163 11.5676 13.1515 11.4321 12.9255M11.408 13.8613L11.4855 13.6569C11.5453 13.4178 11.5076 13.1675 11.3812 12.9565L11.3811 12.9563C11.3811 12.9562 11.381 12.9562 11.381 12.9562L11.4321 12.9255M11.4321 12.9255C11.2968 12.6999 11.0816 12.5403 10.8263 12.4765M10.8263 12.4765L10.5892 12.4467M10.5892 12.4467C10.5914 12.4667 10.5931 12.4867 10.5945 12.5067M10.5892 12.4467C10.588 12.4467 10.5868 12.4467 10.5856 12.4467C10.4286 12.4467 10.2745 12.4869 10.1328 12.5608M10.5892 12.4467L10.1328 12.5608M10.5945 12.5067C10.5952 12.5176 10.5958 12.5284 10.5963 12.5393L10.5856 12.5398L10.2975 12.5532M10.5945 12.5067C10.5915 12.5067 10.5885 12.5066 10.5856 12.5067C10.4876 12.5067 10.3905 12.5224 10.2975 12.5532M10.2975 12.5532L10.1328 12.5608M10.2975 12.5532C10.2502 12.5688 10.204 12.5883 10.1593 12.6117C10.1431 12.6201 10.1271 12.6291 10.1113 12.6386L10.1111 12.6387L10.0781 12.6585M10.1328 12.5608L9.86831 12.7843L9.8684 12.7843L10.0517 12.8302C10.0517 12.8302 10.0517 12.8302 10.0517 12.8303C10.066 12.7732 10.0747 12.7157 10.0781 12.6585M10.1328 12.5608L10.0619 12.4251M10.1328 12.5608C10.1254 12.4027 10.0838 12.247 10.0038 12.1081C9.98559 12.1161 9.96757 12.1246 9.94973 12.1334M10.0781 12.6585C10.08 12.6267 10.0802 12.5949 10.0788 12.5633C10.0767 12.5168 10.071 12.4706 10.0619 12.4251M10.0781 12.6585L10.0619 12.4251M10.0619 12.4251L9.91806 12.1494C9.92855 12.144 9.93911 12.1386 9.94973 12.1334M10.0619 12.4251L9.91319 12.0764C9.92609 12.0951 9.93827 12.1141 9.94973 12.1334M10.0619 12.4251C10.0416 12.3231 10.0038 12.2246 9.94973 12.1334M11.1414 14.2423L11.2207 14.1078C11.1863 14.1399 11.1494 14.1696 11.1101 14.1964C11.0949 14.2068 11.0795 14.2167 11.0637 14.2262L11.0635 14.2263L11.0299 14.2464L11.1414 14.2423ZM3.73055 12.0826L3.67779 12.0549C3.66809 12.0723 3.64394 12.1158 3.60828 12.1801C3.59945 12.196 3.58991 12.2132 3.57971 12.2316C3.59789 12.2406 3.61623 12.2486 3.6346 12.2555C3.66598 12.199 3.69795 12.1414 3.73055 12.0826ZM7.87753 17.3533C7.87748 17.3533 7.87743 17.3533 7.87738 17.3534L7.87753 17.3533Z" fill="#634686" stroke="#634686" stroke-width="0.928093"/>
<path d="M19.5793 12.9187L19.5792 12.9188L19.5793 12.9187ZM19.5793 12.9187C19.482 12.7445 19.486 12.53 19.589 12.3583L19.5793 12.9187ZM13.8377 12.5065C13.7652 12.5071 13.6923 12.5162 13.6203 12.5343L13.8377 12.5065ZM13.8377 12.5065C13.839 12.4865 13.8408 12.4666 13.8429 12.4466L13.8377 12.5065ZM19.1616 13.2442L19.1222 13.1732L19.1616 13.2442ZM18.0435 14.8717C18.0434 14.8716 18.0433 14.8716 18.0432 14.8715L18.0433 14.8716L18.0435 14.8717ZM16.5546 17.3536C16.5545 17.3536 16.5544 17.3535 16.5543 17.3534L16.5546 17.3536ZM16.5541 17.3533L16.5543 17.3534L16.5541 17.3533Z" fill="#634686" stroke="#634686" stroke-width="0.928093"/>
</svg>
