<svg width="13" height="12" viewBox="0 0 13 12" fill="none" xmlns="http://www.w3.org/2000/svg">
<path fill-rule="evenodd" clip-rule="evenodd" d="M6.75224 0.108673C5.13907 0.108673 4.93662 0.115727 4.30304 0.14456C3.67069 0.173517 3.23906 0.273628 2.86139 0.420515C2.47072 0.572229 2.13932 0.775174 1.80917 1.10545C1.47876 1.43561 1.27582 1.76701 1.12361 2.15755C0.976349 2.53535 0.876114 2.9671 0.847653 3.5992C0.819314 4.23279 0.81189 4.43536 0.81189 6.04853C0.81189 7.66169 0.819067 7.86352 0.847776 8.49711C0.876857 9.12946 0.976968 9.56109 1.12373 9.93876C1.27557 10.3294 1.47851 10.6608 1.8088 10.991C2.13883 11.3214 2.47022 11.5248 2.86064 11.6765C3.23857 11.8234 3.67032 11.9235 4.30254 11.9525C4.93613 11.9813 5.13846 11.9884 6.7515 11.9884C8.36479 11.9884 8.56662 11.9813 9.2002 11.9525C9.83255 11.9235 10.2647 11.8234 10.6426 11.6765C11.0331 11.5248 11.364 11.3214 11.6941 10.991C12.0245 10.6608 12.2274 10.3294 12.3796 9.93888C12.5257 9.56109 12.6259 9.12933 12.6556 8.49723C12.6841 7.86365 12.6915 7.66169 12.6915 6.04853C12.6915 4.43536 12.6841 4.23291 12.6556 3.59933C12.6259 2.96698 12.5257 2.53535 12.3796 2.15768C12.2274 1.76701 12.0245 1.43561 11.6941 1.10545C11.3637 0.775051 11.0333 0.572105 10.6422 0.420515C10.2636 0.273628 9.83168 0.173517 9.19934 0.14456C8.56575 0.115727 8.36404 0.108673 6.75038 0.108673H6.75224ZM6.21936 1.17907C6.37751 1.17882 6.55397 1.17907 6.75221 1.17907C8.33816 1.17907 8.52613 1.18476 9.15241 1.21322C9.73155 1.2397 10.0459 1.33647 10.2552 1.41778C10.5324 1.52544 10.7301 1.65413 10.9378 1.86203C11.1457 2.06992 11.2744 2.26792 11.3823 2.54511C11.4636 2.75424 11.5605 3.06856 11.5869 3.6477C11.6153 4.27386 11.6215 4.46195 11.6215 6.04715C11.6215 7.63235 11.6153 7.82044 11.5869 8.4466C11.5604 9.02574 11.4636 9.34006 11.3823 9.54919C11.2747 9.82638 11.1457 10.0238 10.9378 10.2315C10.7299 10.4394 10.5326 10.5681 10.2552 10.6758C10.0461 10.7575 9.73155 10.854 9.15241 10.8805C8.52625 10.9089 8.33816 10.9151 6.75221 10.9151C5.16615 10.9151 4.97818 10.9089 4.35202 10.8805C3.77288 10.8537 3.45856 10.757 3.24906 10.6757C2.97187 10.568 2.77387 10.4393 2.56598 10.2314C2.35808 10.0235 2.22939 9.82601 2.12148 9.54869C2.04018 9.33956 1.94328 9.02525 1.91692 8.44611C1.88846 7.81995 1.88277 7.63185 1.88277 6.04566C1.88277 4.45948 1.88846 4.27237 1.91692 3.64621C1.94341 3.06708 2.04018 2.75276 2.12148 2.54338C2.22914 2.26618 2.35808 2.06819 2.56598 1.86029C2.77387 1.6524 2.97187 1.5237 3.24906 1.4158C3.45844 1.33412 3.77288 1.2376 4.35202 1.21099C4.89997 1.18624 5.11232 1.17882 6.21936 1.17758V1.17907ZM9.92286 2.16533C9.52935 2.16533 9.21008 2.48423 9.21008 2.87787C9.21008 3.27138 9.52935 3.59065 9.92286 3.59065C10.3164 3.59065 10.6356 3.27138 10.6356 2.87787C10.6356 2.48435 10.3164 2.16533 9.92286 2.16533ZM6.75225 2.99815C5.06768 2.99815 3.70189 4.36394 3.70189 6.04851C3.70189 7.73308 5.06768 9.09826 6.75225 9.09826C8.43682 9.09826 9.80212 7.73308 9.80212 6.04851C9.80212 4.36394 8.43682 2.99815 6.75225 2.99815ZM6.75223 4.06856C7.84565 4.06856 8.73218 4.95496 8.73218 6.04851C8.73218 7.14194 7.84565 8.02846 6.75223 8.02846C5.65867 8.02846 4.77227 7.14194 4.77227 6.04851C4.77227 4.95496 5.65867 4.06856 6.75223 4.06856Z" fill="white"/>
</svg>
