<svg width="13" height="12" viewBox="0 0 13 12" fill="none" xmlns="http://www.w3.org/2000/svg">
<path fill-rule="evenodd" clip-rule="evenodd" d="M12.1029 6.04023C12.1029 6.44193 12.062 6.84307 11.9816 7.23408C11.9033 7.61581 11.7873 7.99058 11.6353 8.34884C11.4868 8.70076 11.3026 9.03989 11.0874 9.35616C10.8754 9.67042 10.6312 9.96526 10.3629 10.234C10.094 10.5016 9.79818 10.7452 9.48407 10.9581C9.16677 11.1718 8.82715 11.3557 8.47502 11.5049C8.11624 11.6561 7.74061 11.7719 7.35921 11.8501C6.96767 11.9307 6.56507 11.9718 6.16279 11.9718C5.76021 11.9718 5.35763 11.9307 4.96666 11.8501C4.58468 11.7719 4.20907 11.6561 3.85057 11.5049C3.49846 11.3557 3.15852 11.1718 2.84121 10.9581C2.5271 10.7452 2.23126 10.5016 1.96296 10.234C1.69439 9.96526 1.45016 9.67042 1.23785 9.35616C1.0238 9.03989 0.839317 8.70074 0.690245 8.34884C0.538243 7.99058 0.421952 7.61579 0.343347 7.23408C0.263883 6.84307 0.223267 6.44193 0.223267 6.04023C0.223267 5.63823 0.263859 5.23624 0.343371 4.84608C0.421975 4.46435 0.538267 4.089 0.690268 3.73132C0.839341 3.37914 1.02382 3.03971 1.23787 2.72342C1.45018 2.4089 1.69441 2.11462 1.96299 1.84556C2.23128 1.57793 2.52712 1.33496 2.84124 1.12237C3.15854 0.907747 3.49849 0.723858 3.85059 0.574397C4.20909 0.422894 4.58468 0.30677 4.96668 0.229161C5.35766 0.14923 5.76024 0.108673 6.16282 0.108673C6.56509 0.108673 6.96767 0.14923 7.35923 0.229161C7.74063 0.306793 8.11624 0.422917 8.47504 0.574397C8.82715 0.723835 9.16679 0.907747 9.48409 1.12237C9.79821 1.33496 10.0941 1.57793 10.3629 1.84556C10.6312 2.11462 10.8754 2.4089 11.0875 2.72342C11.3026 3.03971 11.4868 3.37917 11.6353 3.73132C11.7873 4.089 11.9033 4.46435 11.9816 4.84608C12.062 5.23624 12.1029 5.63823 12.1029 6.04023ZM3.99846 1.45862C2.5839 2.12564 1.52814 3.42721 1.19894 4.99583C1.33266 4.99699 3.44651 5.02364 5.882 4.37747C5.00405 2.81985 4.06604 1.54872 3.99846 1.45862ZM6.30226 5.15746C3.69043 5.93826 1.18415 5.88208 1.09424 5.87862C1.09278 5.93306 1.09018 5.98576 1.09018 6.04023C1.09018 7.3415 1.5818 8.5278 2.38986 9.4248C2.38812 9.42218 3.77629 6.96297 6.51371 6.07904C6.57983 6.05703 6.64714 6.03732 6.71384 6.01822C6.58653 5.73035 6.44757 5.44187 6.30226 5.15746ZM9.51279 2.23859C8.61972 1.45224 7.44709 0.975254 6.16278 0.975254C5.75062 0.975254 5.35064 1.02507 4.9675 1.11717C5.04348 1.21913 5.99629 2.48131 6.8638 4.07191C8.77782 3.35539 9.5003 2.25712 9.51279 2.23859ZM7.05961 6.85755C7.04832 6.86129 7.03702 6.86452 7.02597 6.86855C4.03306 7.91042 3.05568 10.0101 3.04511 10.033C3.90627 10.7017 4.98639 11.1052 6.16281 11.1052C6.86528 11.1052 7.5344 10.9624 8.1432 10.7038C8.06808 10.2612 7.7734 8.71 7.05961 6.85755ZM8.99738 10.241C10.1364 9.47346 10.9453 8.25472 11.1709 6.84304C11.0665 6.80945 9.64735 6.36081 8.01004 6.62294C8.6754 8.44876 8.94574 9.9357 8.99738 10.241ZM7.25424 4.82669C7.37197 5.06824 7.48599 5.31409 7.59126 5.56118C7.62869 5.64981 7.66524 5.73671 7.7009 5.82358C9.44348 5.60461 11.1603 5.97302 11.2336 5.98806C11.222 4.78729 10.7919 3.68525 10.0802 2.82248C10.0706 2.83606 9.257 4.00992 7.25424 4.82669Z" fill="white"/>
</svg>
