<svg width="34" height="23" viewBox="0 0 34 23" fill="none" xmlns="http://www.w3.org/2000/svg">
<path d="M32.1936 21.5927L32.1936 21.5927C32.3249 21.5017 32.4367 21.3855 32.5227 21.2509L32.816 21.4382L32.5227 21.2509C32.6086 21.1163 32.667 20.966 32.6943 20.8086C32.7216 20.6512 32.7174 20.49 32.6819 20.3343L33.0212 20.2569L32.6818 20.3343C32.6463 20.1786 32.5802 20.0315 32.4873 19.9016L32.4858 19.8994C31.1787 18.0415 29.3977 16.5676 27.3281 15.631L26.8234 15.4026L27.2482 15.0471C28.508 13.9926 29.4122 12.5754 29.8377 10.9886C30.2632 9.40182 30.1894 7.72242 29.6262 6.1791C29.063 4.63577 28.0378 3.30352 26.6903 2.36373C25.3428 1.42394 23.7383 0.922277 22.0955 0.927048L22.0939 0.927053C21.3628 0.925834 20.6351 1.02679 19.9319 1.22698L19.9256 1.22876L19.9256 1.2287C19.7694 1.27003 19.623 1.34202 19.4949 1.44048C19.3668 1.53893 19.2596 1.66189 19.1795 1.80219C19.0993 1.94248 19.0479 2.09732 19.0282 2.25767C19.0085 2.41803 19.0209 2.58071 19.0647 2.73623C19.1084 2.89176 19.1827 3.03702 19.2831 3.16357L19.0105 3.37994L19.2831 3.16357C19.3836 3.29012 19.5082 3.39542 19.6497 3.47335L19.4818 3.77822L19.6497 3.47335C19.7912 3.55128 19.9469 3.60027 20.1075 3.61748C20.2681 3.63469 20.4306 3.61976 20.5854 3.57358L20.5894 3.57239L20.5894 3.57241C21.0791 3.43273 21.5859 3.36233 22.0951 3.36329M32.1936 21.5927L22.0945 3.71133M32.1936 21.5927L32.1896 21.5956C31.9864 21.7408 31.7427 21.8186 31.493 21.8178C31.2977 21.8167 31.1054 21.769 30.9321 21.6788C30.759 21.5887 30.6097 21.4587 30.4966 21.2995M32.1936 21.5927L30.2124 21.5003M22.0951 3.36329L22.0945 3.71133M22.0951 3.36329C22.0949 3.36329 22.0947 3.36329 22.0945 3.36329V3.71133M22.0951 3.36329C23.5717 3.36347 24.9879 3.95013 26.032 4.99429C27.0763 6.03859 27.663 7.45498 27.663 8.93185C27.663 10.4087 27.0763 11.8251 26.032 12.8694C24.9877 13.9137 23.5713 14.5004 22.0945 14.5004C21.7714 14.5004 21.4616 14.6287 21.2331 14.8572C21.0047 15.0856 20.8763 15.3955 20.8763 15.7185C20.8763 16.0416 21.0047 16.3514 21.2331 16.5799C21.4616 16.8083 21.7714 16.9366 22.0945 16.9366H22.0948C23.7423 16.9385 25.3652 17.3357 26.8272 18.0949C28.2892 18.8541 29.5476 19.953 30.4966 21.2995M22.0945 3.71133C23.479 3.71133 24.8069 4.26135 25.7859 5.24038C26.765 6.21942 27.315 7.54728 27.315 8.93185C27.315 10.3164 26.765 11.6443 25.7859 12.6233C24.8069 13.6024 23.479 14.1524 22.0945 14.1524C21.6791 14.1524 21.2807 14.3174 20.987 14.6111C20.6933 14.9048 20.5283 15.3032 20.5283 15.7185C20.5283 16.1339 20.6933 16.5323 20.987 16.826C21.2807 17.1197 21.6791 17.2847 22.0945 17.2847C23.6862 17.2864 25.2542 17.6702 26.6668 18.4038C28.0795 19.1373 29.2954 20.1992 30.2124 21.5003M30.4966 21.2995C30.4965 21.2993 30.4964 21.2991 30.4963 21.2989L30.2124 21.5003M30.4966 21.2995C30.4967 21.2996 30.4968 21.2997 30.4968 21.2997L30.2124 21.5003M16.6107 15.0476L16.188 15.4032L16.6913 15.631C18.7609 16.5676 20.5419 18.0415 21.849 19.8994L21.8539 19.9065L21.8593 19.9133C21.9608 20.0434 22.0349 20.1928 22.0769 20.3523C22.119 20.5119 22.1282 20.6784 22.104 20.8416C22.0798 21.0048 22.0226 21.1615 21.936 21.3019C21.8495 21.4424 21.7352 21.5639 21.6003 21.6589C21.4654 21.7539 21.3125 21.8205 21.1511 21.8546C20.9896 21.8888 20.8229 21.8897 20.6611 21.8575C20.4993 21.8253 20.3456 21.7605 20.2096 21.6671C20.0735 21.5737 19.9579 21.4536 19.8697 21.3142L19.8652 21.3071L19.8604 21.3003C18.9132 19.9512 17.6552 18.8501 16.1926 18.0899C14.7301 17.3297 13.106 16.9329 11.4576 16.9329C9.80932 16.9329 8.18522 17.3297 6.72266 18.0899C5.26009 18.8501 4.00205 19.9512 3.05489 21.3003L3.05411 21.3014C2.94277 21.4613 2.79432 21.5918 2.62148 21.6817C2.44863 21.7717 2.25655 21.8184 2.0617 21.8178L2.05957 21.8178C1.80968 21.8187 1.56585 21.7409 1.36255 21.5956L1.36087 21.5944C1.09736 21.4084 0.918381 21.1255 0.863195 20.8077C0.808025 20.49 0.881076 20.1634 1.06633 19.8994C2.37343 18.0415 4.15437 16.5676 6.22399 15.631L6.72731 15.4032L6.30455 15.0476C5.04812 13.9906 4.14711 12.5729 3.72365 10.9866C3.30019 9.40021 3.37479 7.72203 3.93731 6.17952C4.49984 4.63701 5.52309 3.30478 6.86834 2.36346C8.21359 1.42213 9.81576 0.917249 11.4576 0.917249C13.0995 0.917249 14.7017 1.42213 16.0469 2.36346C17.3922 3.30478 18.4154 4.63701 18.978 6.17952C19.5405 7.72203 19.6151 9.40021 19.1916 10.9866C18.7682 12.5729 17.8672 13.9906 16.6107 15.0476ZM6.82756 5.83812C6.21568 6.75387 5.88909 7.83049 5.88909 8.93185C5.88909 10.4087 6.47577 11.8251 7.52008 12.8694C8.56439 13.9137 9.98077 14.5004 11.4576 14.5004C12.559 14.5004 13.6356 14.1738 14.5514 13.5619C15.4671 12.9501 16.1808 12.0804 16.6023 11.0628C17.0238 10.0453 17.1341 8.92567 16.9192 7.84548C16.7043 6.76528 16.174 5.77306 15.3952 4.99429C14.6164 4.21551 13.6242 3.68515 12.544 3.47029C11.4638 3.25543 10.3442 3.3657 9.32665 3.78717C8.30913 4.20864 7.43944 4.92238 6.82756 5.83812Z" fill="#634686" stroke="#634686" stroke-width="0.696069"/>
</svg>
