<svg width="24" height="27" viewBox="0 0 24 27" fill="none" xmlns="http://www.w3.org/2000/svg">
<path d="M23.3049 25.9141V23.1298C23.3049 21.6529 22.7182 20.2366 21.6739 19.1923C20.6296 18.1479 19.2132 17.5613 17.7363 17.5613H16.3442C15.9749 17.5613 15.6209 17.4146 15.3598 17.1535C15.0987 16.8924 14.952 16.5383 14.952 16.1691V9.20842C14.952 8.46999 14.6587 7.7618 14.1365 7.23964C13.6144 6.71749 12.9062 6.42415 12.1678 6.42415C11.4293 6.42415 10.7211 6.71749 10.199 7.23964C9.67682 7.7618 9.38347 8.46999 9.38347 9.20842V21.7377L6.04234 17.2828C5.78299 16.937 5.4467 16.6564 5.06008 16.4631C4.67347 16.2698 4.24716 16.1691 3.81492 16.1691H3.21073C2.00653 16.1691 1.03064 17.145 1.03064 18.3492C1.03064 18.7446 1.13783 19.133 1.34109 19.4713L5.20706 25.9141M12.1678 2.24773V0.855591V2.24773ZM20.5206 10.6006H21.9127H20.5206ZM2.42278 10.6006H3.81492H2.42278ZM5.68456 4.11737L4.70032 3.13313L5.68456 4.11737ZM18.6509 4.11737L19.6352 3.13313L18.6509 4.11737Z" fill="#634686"/>
<path d="M23.3049 25.9141V23.1298C23.3049 21.6529 22.7182 20.2366 21.6739 19.1923C20.6296 18.1479 19.2132 17.5613 17.7363 17.5613H16.3442C15.9749 17.5613 15.6209 17.4146 15.3598 17.1535C15.0987 16.8924 14.952 16.5383 14.952 16.1691V9.20842C14.952 8.46999 14.6587 7.7618 14.1365 7.23964C13.6144 6.71749 12.9062 6.42415 12.1678 6.42415V6.42415C11.4293 6.42415 10.7211 6.71749 10.199 7.23964C9.67682 7.7618 9.38347 8.46999 9.38347 9.20842V21.7377L6.04234 17.2828C5.78299 16.937 5.4467 16.6564 5.06008 16.4631C4.67347 16.2698 4.24716 16.1691 3.81492 16.1691H3.21073C2.00653 16.1691 1.03064 17.145 1.03064 18.3492C1.03064 18.7446 1.13783 19.133 1.34109 19.4713L5.20706 25.9141M12.1678 2.24773V0.855591M20.5206 10.6006H21.9127M2.42278 10.6006H3.81492M5.68456 4.11737L4.70032 3.13313M18.6509 4.11737L19.6352 3.13313" stroke="#634686" stroke-width="1.39214" stroke-linecap="round" stroke-linejoin="round"/>
</svg>
