<svg width="11" height="10" viewBox="0 0 11 10" fill="none" xmlns="http://www.w3.org/2000/svg">
<path fill-rule="evenodd" clip-rule="evenodd" d="M5.24086 2.96374L5.26423 3.34911L4.87472 3.30193C3.45691 3.12104 2.21827 2.50759 1.1666 1.47732L0.652444 0.966117L0.520011 1.34362C0.239565 2.18514 0.418739 3.07385 1.003 3.67157C1.31461 4.00188 1.2445 4.04907 0.706975 3.85245C0.520011 3.78954 0.356417 3.74235 0.340837 3.76594C0.286306 3.82099 0.47327 4.53668 0.621284 4.81981C0.823828 5.21304 1.23671 5.59841 1.68854 5.82649L2.07026 6.00737L1.61843 6.01524C1.18218 6.01524 1.1666 6.0231 1.21334 6.18826C1.36914 6.69947 1.98456 7.24213 2.6701 7.47807L3.15309 7.64323L2.73242 7.8949C2.10921 8.25667 1.37693 8.46115 0.644654 8.47688C0.294096 8.48475 0.00585938 8.51621 0.00585938 8.5398C0.00585938 8.61845 0.956261 9.05887 1.50936 9.23189C3.16867 9.7431 5.13959 9.52289 6.61972 8.64991C7.6714 8.0286 8.72307 6.79384 9.21385 5.59841C9.47872 4.96137 9.74358 3.7974 9.74358 3.23901C9.74358 2.87723 9.76695 2.83005 10.2032 2.39749C10.4603 2.14582 10.7018 1.87055 10.7485 1.79191C10.8264 1.64248 10.8186 1.64248 10.4213 1.77618C9.75916 2.01212 9.66568 1.98066 9.99287 1.62675C10.2344 1.37508 10.5226 0.918929 10.5226 0.785229C10.5226 0.761635 10.4057 0.800959 10.2733 0.871741C10.1331 0.950387 9.82148 1.06836 9.58778 1.13914L9.16711 1.27284L8.78539 1.0133C8.57506 0.871741 8.27903 0.714447 8.12323 0.667259C7.72593 0.557154 7.11829 0.572883 6.75994 0.698718C5.78617 1.05263 5.17075 1.96493 5.24086 2.96374Z" fill="white"/>
</svg>
