<svg width="23" height="24" viewBox="0 0 23 24" fill="none" xmlns="http://www.w3.org/2000/svg">
<path opacity="0.1" fill-rule="evenodd" clip-rule="evenodd" d="M0.437256 12.0485C0.437256 5.8976 5.42351 0.911346 11.5744 0.911346C17.7252 0.911346 22.7115 5.8976 22.7115 12.0485C22.7115 18.1993 17.7252 23.1856 11.5744 23.1856C5.42351 23.1856 0.437256 18.1993 0.437256 12.0485Z" fill="white"/>
<path fill-rule="evenodd" clip-rule="evenodd" d="M11.2409 9.96371L11.2642 10.3491L10.8747 10.3019C9.45691 10.121 8.21827 9.50756 7.1666 8.47729L6.65244 7.96609L6.52001 8.34359C6.23956 9.18511 6.41874 10.0738 7.003 10.6715C7.31461 11.0019 7.2445 11.049 6.70698 10.8524C6.52001 10.7895 6.35642 10.7423 6.34084 10.7659C6.28631 10.821 6.47327 11.5366 6.62128 11.8198C6.82383 12.213 7.23671 12.5984 7.68854 12.8265L8.07026 13.0073L7.61843 13.0152C7.18218 13.0152 7.1666 13.0231 7.21334 13.1882C7.36914 13.6994 7.98456 14.2421 8.6701 14.478L9.15309 14.6432L8.73242 14.8949C8.10921 15.2566 7.37693 15.4611 6.64465 15.4769C6.2941 15.4847 6.00586 15.5162 6.00586 15.5398C6.00586 15.6184 6.95626 16.0588 7.50936 16.2319C9.16867 16.7431 11.1396 16.5229 12.6197 15.6499C13.6714 15.0286 14.7231 13.7938 15.2139 12.5984C15.4787 11.9613 15.7436 10.7974 15.7436 10.239C15.7436 9.8772 15.767 9.83001 16.2032 9.39746C16.4603 9.14579 16.7018 8.87052 16.7485 8.79188C16.8264 8.64245 16.8186 8.64245 16.4213 8.77615C15.7592 9.01209 15.6657 8.98063 15.9929 8.62672C16.2344 8.37505 16.5226 7.9189 16.5226 7.7852C16.5226 7.7616 16.4057 7.80093 16.2733 7.87171C16.1331 7.95036 15.8215 8.06833 15.5878 8.13911L15.1671 8.27281L14.7854 8.01327C14.5751 7.87171 14.279 7.71442 14.1232 7.66723C13.7259 7.55712 13.1183 7.57285 12.7599 7.69869C11.7862 8.0526 11.1707 8.9649 11.2409 9.96371Z" fill="white"/>
</svg>
