<svg width="24" height="24" viewBox="0 0 24 24" fill="none" xmlns="http://www.w3.org/2000/svg">
<path opacity="0.1" fill-rule="evenodd" clip-rule="evenodd" d="M0.848633 12.0485C0.848633 5.8976 5.83489 0.911346 11.9857 0.911346C18.1366 0.911346 23.1229 5.8976 23.1229 12.0485C23.1229 18.1993 18.1366 23.1856 11.9857 23.1856C5.83489 23.1856 0.848633 18.1993 0.848633 12.0485Z" fill="white"/>
<path fill-rule="evenodd" clip-rule="evenodd" d="M16.6269 8.21979C17.1381 8.36005 17.5406 8.77334 17.6772 9.29818C17.9255 10.2494 17.9255 12.2341 17.9255 12.2341C17.9255 12.2341 17.9255 14.2187 17.6772 15.17C17.5406 15.6949 17.1381 16.1081 16.6269 16.2485C15.7006 16.5033 11.9857 16.5033 11.9857 16.5033C11.9857 16.5033 8.27082 16.5033 7.34442 16.2485C6.83326 16.1081 6.4307 15.6949 6.29409 15.17C6.0459 14.2187 6.0459 12.2341 6.0459 12.2341C6.0459 12.2341 6.0459 10.2494 6.29409 9.29818C6.4307 8.77334 6.83326 8.36005 7.34442 8.21979C8.27082 7.96487 11.9857 7.96487 11.9857 7.96487C11.9857 7.96487 15.7006 7.96487 16.6269 8.21979ZM10.872 10.5635V14.2759L13.8419 12.4198L10.872 10.5635Z" fill="white"/>
</svg>
