<svg width="12" height="10" viewBox="0 0 12 10" fill="none" xmlns="http://www.w3.org/2000/svg">
<path fill-rule="evenodd" clip-rule="evenodd" d="M10.6269 1.21979C11.1381 1.36005 11.5406 1.77334 11.6772 2.29818C11.9255 3.24939 11.9255 5.2341 11.9255 5.2341C11.9255 5.2341 11.9255 7.21874 11.6772 8.17002C11.5406 8.69486 11.1381 9.10815 10.6269 9.24848C9.70056 9.50333 5.98569 9.50333 5.98569 9.50333C5.98569 9.50333 2.27082 9.50333 1.34442 9.24848C0.833259 9.10815 0.430703 8.69486 0.294087 8.17002C0.0458984 7.21874 0.0458984 5.2341 0.0458984 5.2341C0.0458984 5.2341 0.0458984 3.24939 0.294087 2.29818C0.430703 1.77334 0.833259 1.36005 1.34442 1.21979C2.27082 0.964874 5.98569 0.964874 5.98569 0.964874C5.98569 0.964874 9.70056 0.964874 10.6269 1.21979ZM4.87199 3.56349V7.27587L7.84189 5.41975L4.87199 3.56349Z" fill="white"/>
</svg>
